<?xml version="1.0" encoding="UTF-8" standalone="no"?>
<svg
   version="1.1"
   viewBox="0 0 25 380"
   enable-background="new 0 0 25 380"
   id="svg14"
   xmlns="http://www.w3.org/2000/svg"
   xmlns:svg="http://www.w3.org/2000/svg">
  <defs
     id="defs18" />
  <g
     id="g12">
    <path
       id="rect4"
       style="clip-rule:evenodd;fill:#1a5e9a;fill-rule:evenodd"
       d="M 0,0 H 25 V 380 H 0 Z" />
    <g
       transform="rotate(-90,19,37)"
       id="g10">
      <g
         aria-label="W3C Candidate Recommendation Draft"
         id="text8"
         style="fill:#ffffff">
        <path
           d="m -292.00586,23.357422 h 1.94336 l -5.51758,13.701172 H -296 l -4.46289,-11.09375 -4.50195,11.09375 h -0.41993 l -5.49804,-13.701172 h 1.96289 l 3.75976,9.404297 3.7793,-9.404297 h 1.85547 l 3.79883,9.404297 z"
           id="path21" />
        <path
           d="m -286.41992,29.060547 h 0.11719 q 1.27929,0 1.94336,-0.527344 0.67382,-0.527344 0.67382,-1.533203 0,-0.908203 -0.65429,-1.474609 -0.64453,-0.566407 -1.69922,-0.566407 -1.06446,0 -2.36328,0.664063 v -1.865235 q 1.1914,-0.595703 2.59765,-0.595703 1.88477,0 2.96875,0.986328 1.09375,0.986329 1.09375,2.695313 0,1.035156 -0.41992,1.748047 -0.41992,0.703125 -1.33789,1.210937 0.80078,0.3125 1.17188,0.771485 0.37109,0.449218 0.57617,1.09375 0.20508,0.644531 0.20508,1.367187 0,1.78711 -1.19141,2.958985 -1.19141,1.162109 -3.00781,1.162109 -1.55274,0 -2.99805,-0.751953 v -2.128906 q 1.54297,0.966796 2.99805,0.966796 0.98632,0 1.58203,-0.585937 0.60547,-0.585938 0.60547,-1.552734 0,-0.810547 -0.49805,-1.416016 -0.29297,-0.341797 -0.6543,-0.498047 -0.35156,-0.166016 -1.5332,-0.3125 l -0.17578,-0.01953 z"
           id="path23" />
        <path
           d="m -266.76172,33.835937 v 2.148438 q -2.14844,1.171875 -4.96094,1.171875 -2.28515,0 -3.87695,-0.917969 -1.5918,-0.917969 -2.51953,-2.529297 -0.92773,-1.611328 -0.92773,-3.486328 0,-2.978515 2.11914,-5.009765 2.1289,-2.03125 5.24414,-2.03125 2.14843,0 4.77539,1.123046 v 2.09961 q -2.39258,-1.367188 -4.67774,-1.367188 -2.34375,0 -3.89648,1.484375 -1.54297,1.47461 -1.54297,3.701172 0,2.246094 1.52344,3.691406 1.52343,1.445313 3.89648,1.445313 2.48047,0 4.84375,-1.523438 z"
           id="path25" />
        <path
           d="m -247.03516,33.835937 v 2.148438 q -2.14843,1.171875 -4.96093,1.171875 -2.28516,0 -3.87696,-0.917969 -1.59179,-0.917969 -2.51953,-2.529297 -0.92773,-1.611328 -0.92773,-3.486328 0,-2.978515 2.11914,-5.009765 2.1289,-2.03125 5.24414,-2.03125 2.14844,0 4.77539,1.123046 v 2.09961 q -2.39258,-1.367188 -4.67773,-1.367188 -2.34375,0 -3.89649,1.484375 -1.54297,1.47461 -1.54297,3.701172 0,2.246094 1.52344,3.691406 1.52344,1.445313 3.89648,1.445313 2.48047,0 4.84375,-1.523438 z"
           id="path27" />
        <path
           d="m -239.21289,31.599609 v 3.81836 q 0,0.458984 0.3125,0.458984 0.32227,0 1.00586,-0.478516 v 1.083985 q -0.60547,0.390625 -0.97656,0.527344 -0.36133,0.146484 -0.76172,0.146484 -1.14258,0 -1.34766,-0.898438 -1.13281,0.878907 -2.41211,0.878907 -0.9375,0 -1.5625,-0.615235 -0.625,-0.625 -0.625,-1.5625 0,-0.849609 0.60547,-1.513672 0.61524,-0.673828 1.73828,-1.064453 l 2.27539,-0.78125 v -0.478515 q 0,-1.621094 -1.62109,-1.621094 -1.45508,0 -2.83203,1.503906 v -1.943359 q 1.03515,-1.220703 2.97851,-1.220703 1.45508,0 2.33399,0.761718 0.29297,0.244141 0.52734,0.654297 0.23438,0.400391 0.29297,0.810547 0.0684,0.400391 0.0684,1.533203 z m -1.74805,3.623047 v -2.666015 l -1.1914,0.458984 q -0.90821,0.361328 -1.28907,0.732422 -0.37109,0.361328 -0.37109,0.908203 0,0.556641 0.35156,0.908203 0.36133,0.351563 0.92774,0.351563 0.84961,0 1.57226,-0.69336 z"
           id="path29" />
        <path
           d="m -234.52539,28.015625 v 1.142578 q 1.19141,-1.318359 2.70508,-1.318359 0.83984,0 1.5625,0.439453 0.72265,0.429687 1.09375,1.191406 0.38086,0.751953 0.38086,2.392578 V 37 h -1.77735 v -5.117188 q 0,-1.376953 -0.41992,-1.96289 -0.41992,-0.595703 -1.40625,-0.595703 -1.25976,0 -2.13867,1.259765 V 37 h -1.81641 v -8.984375 z"
           id="path31" />
        <path
           d="m -220.30664,23.357422 h 1.78711 V 37 h -3.79883 q -1.99219,0 -3.18359,-1.259766 -1.18164,-1.259765 -1.18164,-3.378906 0,-1.982422 1.24023,-3.261719 1.25,-1.279297 3.18359,-1.279297 0.89844,0 1.95313,0.38086 z m 0,12.11914 v -5.693359 q -0.83008,-0.419922 -1.67969,-0.419922 -1.32812,0 -2.11914,0.869141 -0.78125,0.86914 -0.78125,2.34375 0,1.386719 0.6836,2.138672 0.41015,0.449218 0.86914,0.605468 0.45898,0.15625 1.65039,0.15625 z"
           id="path33" />
        <path
           d="m -215.18945,24.236328 q 0.43945,0 0.75195,0.302734 0.3125,0.302735 0.3125,0.742188 0,0.429687 -0.3125,0.742187 -0.3125,0.3125 -0.75195,0.3125 -0.41016,0 -0.72266,-0.3125 -0.3125,-0.322265 -0.3125,-0.742187 0,-0.410156 0.3125,-0.722656 0.3125,-0.322266 0.72266,-0.322266 z m -0.87891,3.779297 h 1.77734 V 37 h -1.77734 z"
           id="path35" />
        <path
           d="m -205.73633,23.357422 h 1.78711 V 37 h -3.79883 q -1.99218,0 -3.18359,-1.259766 -1.18164,-1.259765 -1.18164,-3.378906 0,-1.982422 1.24023,-3.261719 1.25,-1.279297 3.1836,-1.279297 0.89843,0 1.95312,0.38086 z m 0,12.11914 v -5.693359 q -0.83008,-0.419922 -1.67969,-0.419922 -1.32812,0 -2.11914,0.869141 -0.78125,0.86914 -0.78125,2.34375 0,1.386719 0.6836,2.138672 0.41015,0.449218 0.86914,0.605468 0.45898,0.15625 1.65039,0.15625 z"
           id="path37" />
        <path
           d="m -195.89258,31.599609 v 3.81836 q 0,0.458984 0.3125,0.458984 0.32227,0 1.00586,-0.478516 v 1.083985 q -0.60547,0.390625 -0.97656,0.527344 -0.36133,0.146484 -0.76172,0.146484 -1.14258,0 -1.34766,-0.898438 -1.13281,0.878907 -2.41211,0.878907 -0.9375,0 -1.5625,-0.615235 -0.625,-0.625 -0.625,-1.5625 0,-0.849609 0.60547,-1.513672 0.61524,-0.673828 1.73828,-1.064453 l 2.2754,-0.78125 v -0.478515 q 0,-1.621094 -1.6211,-1.621094 -1.45508,0 -2.83203,1.503906 v -1.943359 q 1.03516,-1.220703 2.97852,-1.220703 1.45507,0 2.33398,0.761718 0.29297,0.244141 0.52734,0.654297 0.23438,0.400391 0.29297,0.810547 0.0684,0.400391 0.0684,1.533203 z m -1.74804,3.623047 v -2.666015 l -1.19141,0.458984 q -0.9082,0.361328 -1.28906,0.732422 -0.3711,0.361328 -0.3711,0.908203 0,0.556641 0.35157,0.908203 0.36132,0.351563 0.92773,0.351563 0.84961,0 1.57227,-0.69336 z"
           id="path39" />
        <path
           d="m -194.24219,29.441406 3.33985,-3.28125 v 1.855469 h 2.84179 v 1.601562 h -2.84179 v 4.404297 q 0,1.542969 1.27929,1.542969 0.95703,0 2.02149,-0.644531 v 1.660156 q -1.02539,0.576172 -2.23633,0.576172 -1.2207,0 -2.03125,-0.712891 -0.25391,-0.214843 -0.41992,-0.478515 -0.16602,-0.273438 -0.28321,-0.703125 -0.10742,-0.439453 -0.10742,-1.660157 v -3.984375 h -1.5625 z"
           id="path41" />
        <path
           d="m -178.64648,32.664062 h -6.31836 q 0.0684,1.289063 0.85937,2.050782 0.80078,0.761718 2.06055,0.761718 1.75781,0 3.24219,-1.09375 v 1.738282 q -0.82032,0.546875 -1.63086,0.78125 -0.80078,0.234375 -1.88477,0.234375 -1.48437,0 -2.40234,-0.615235 -0.91797,-0.615234 -1.47461,-1.65039 -0.54688,-1.044922 -0.54688,-2.41211 0,-2.050781 1.16211,-3.330078 1.16211,-1.289062 3.01758,-1.289062 1.78711,0 2.85156,1.25 1.06446,1.25 1.06446,3.349609 z m -6.2793,-1.064453 h 4.52148 q -0.0684,-1.064453 -0.63476,-1.640625 -0.56641,-0.576172 -1.52344,-0.576172 -0.95703,0 -1.57227,0.576172 -0.60546,0.576172 -0.79101,1.640625 z"
           id="path43" />
        <path
           d="M -170.88281,37 V 23.357422 h 3.41797 q 2.07031,0 3.28125,1.02539 1.2207,1.025391 1.2207,2.773438 0,1.191406 -0.5957,2.060547 -0.59571,0.86914 -1.70899,1.298828 0.6543,0.429687 1.2793,1.171875 0.625,0.742187 1.75781,2.587891 0.71289,1.162109 1.14258,1.748046 L -160.36523,37 h -2.32422 l -0.59571,-0.898438 q -0.0293,-0.04883 -0.11718,-0.166015 l -0.38086,-0.53711 -0.60547,-0.996093 -0.6543,-1.064453 Q -165.64844,32.498047 -166.15625,32 q -0.49805,-0.498047 -0.9082,-0.712891 -0.40039,-0.224609 -1.35742,-0.224609 h -0.50782 V 37 Z m 2.53906,-11.982422 h -0.58594 v 4.306641 h 0.74219 q 1.48438,0 2.03125,-0.253907 0.55664,-0.253906 0.85938,-0.761718 0.3125,-0.517578 0.3125,-1.171875 0,-0.644532 -0.3418,-1.16211 -0.3418,-0.527343 -0.9668,-0.742187 -0.61523,-0.214844 -2.05078,-0.214844 z"
           id="path45" />
        <path
           d="m -151.45898,32.664062 h -6.31836 q 0.0684,1.289063 0.85937,2.050782 0.80078,0.761718 2.06055,0.761718 1.75781,0 3.24219,-1.09375 v 1.738282 q -0.82032,0.546875 -1.63086,0.78125 -0.80078,0.234375 -1.88477,0.234375 -1.48437,0 -2.40234,-0.615235 -0.91797,-0.615234 -1.47461,-1.65039 -0.54688,-1.044922 -0.54688,-2.41211 0,-2.050781 1.16211,-3.330078 1.16211,-1.289062 3.01758,-1.289062 1.78711,0 2.85156,1.25 1.06446,1.25 1.06446,3.349609 z m -6.2793,-1.064453 h 4.52148 q -0.0684,-1.064453 -0.63476,-1.640625 -0.56641,-0.576172 -1.52344,-0.576172 -0.95703,0 -1.57227,0.576172 -0.60546,0.576172 -0.79101,1.640625 z"
           id="path47" />
        <path
           d="m -142.80664,34.900391 v 1.757812 q -1.33789,0.498047 -2.61719,0.498047 -2.10937,0 -3.36914,-1.25 -1.25,-1.25 -1.25,-3.349609 0,-2.119141 1.2207,-3.417969 1.22071,-1.298828 3.2129,-1.298828 0.69335,0 1.24023,0.136718 0.55664,0.126954 1.36719,0.488282 v 1.894531 q -1.34766,-0.859375 -2.5,-0.859375 -1.20117,0 -1.97266,0.849609 -0.77148,0.839844 -0.77148,2.148438 0,1.376953 0.83007,2.1875 0.83985,0.810547 2.25586,0.810547 1.02539,0 2.35352,-0.595703 z"
           id="path49" />
        <path
           d="m -136.49805,27.996094 q 2.05078,0 3.40821,1.328125 1.35742,1.318359 1.35742,3.320312 0,1.94336 -1.37695,3.232422 -1.37696,1.279297 -3.4668,1.279297 -2.02149,0 -3.37891,-1.298828 -1.35742,-1.308594 -1.35742,-3.261719 0,-1.972656 1.36719,-3.28125 1.37695,-1.318359 3.44726,-1.318359 z m -0.0976,1.601562 q -1.2793,0 -2.09961,0.839844 -0.82031,0.839844 -0.82031,2.138672 0,1.289062 0.83984,2.109375 0.83984,0.810547 2.1582,0.810547 1.3086,0 2.13867,-0.820313 0.83985,-0.830078 0.83985,-2.11914 0,-1.279297 -0.86914,-2.119141 -0.86914,-0.839844 -2.1875,-0.839844 z"
           id="path51" />
        <path
           d="M -122.37695,30.476562 V 37 h -1.78711 v -5 q 0,-1.494141 -0.40039,-2.080078 -0.40039,-0.595703 -1.39649,-0.595703 -0.55664,0 -1.02539,0.253906 -0.45898,0.253906 -1.05469,0.898437 V 37 h -1.77734 v -8.984375 h 1.77734 v 1.181641 q 1.35743,-1.357422 2.65625,-1.357422 1.70899,0 2.64649,1.621093 1.42578,-1.640625 2.97851,-1.640625 1.3086,0 2.14844,0.957032 0.84961,0.957031 0.84961,2.919922 V 37 h -1.77734 v -5.322266 q 0,-1.123047 -0.45899,-1.71875 -0.45898,-0.595703 -1.31836,-0.595703 -1.10351,0 -2.06054,1.113281 z"
           id="path53" />
        <path
           d="M -106.94727,30.476562 V 37 h -1.78711 v -5 q 0,-1.494141 -0.40039,-2.080078 -0.40039,-0.595703 -1.39648,-0.595703 -0.55664,0 -1.02539,0.253906 -0.45899,0.253906 -1.05469,0.898437 V 37 h -1.77734 v -8.984375 h 1.77734 v 1.181641 q 1.35742,-1.357422 2.65625,-1.357422 1.70899,0 2.64649,1.621093 1.42578,-1.640625 2.97851,-1.640625 1.3086,0 2.14844,0.957032 0.84961,0.957031 0.84961,2.919922 V 37 h -1.77735 v -5.322266 q 0,-1.123047 -0.45898,-1.71875 -0.45898,-0.595703 -1.31836,-0.595703 -1.10351,0 -2.06055,1.113281 z"
           id="path55" />
        <path
           d="m -91.224609,32.664062 h -6.31836 q 0.06836,1.289063 0.859375,2.050782 0.800782,0.761718 2.060547,0.761718 1.757813,0 3.242188,-1.09375 v 1.738282 q -0.820313,0.546875 -1.63086,0.78125 -0.800781,0.234375 -1.884765,0.234375 -1.484375,0 -2.402344,-0.615235 -0.917969,-0.615234 -1.474609,-1.65039 -0.546875,-1.044922 -0.546875,-2.41211 0,-2.050781 1.162109,-3.330078 1.162109,-1.289062 3.017578,-1.289062 1.787109,0 2.851563,1.25 1.064453,1.25 1.064453,3.349609 z m -6.279297,-1.064453 h 4.521484 q -0.06836,-1.064453 -0.634765,-1.640625 -0.566407,-0.576172 -1.523438,-0.576172 -0.957031,0 -1.572266,0.576172 -0.605468,0.576172 -0.791015,1.640625 z"
           id="path57" />
        <path
           d="m -87.533203,28.015625 v 1.142578 q 1.191406,-1.318359 2.705078,-1.318359 0.839844,0 1.5625,0.439453 0.722656,0.429687 1.09375,1.191406 0.380859,0.751953 0.380859,2.392578 V 37 h -1.777343 v -5.117188 q 0,-1.376953 -0.419922,-1.96289 -0.419922,-0.595703 -1.40625,-0.595703 -1.259766,0 -2.138672,1.259765 V 37 h -1.816406 v -8.984375 z"
           id="path59" />
        <path
           d="m -73.314453,23.357422 h 1.787109 V 37 h -3.798828 q -1.992187,0 -3.183594,-1.259766 -1.18164,-1.259765 -1.18164,-3.378906 0,-1.982422 1.240234,-3.261719 1.25,-1.279297 3.183594,-1.279297 0.898437,0 1.953125,0.38086 z m 0,12.11914 v -5.693359 q -0.830078,-0.419922 -1.679688,-0.419922 -1.328125,0 -2.11914,0.869141 -0.78125,0.86914 -0.78125,2.34375 0,1.386719 0.683594,2.138672 0.410156,0.449218 0.86914,0.605468 0.458985,0.15625 1.650391,0.15625 z"
           id="path61" />
        <path
           d="m -63.470703,31.599609 v 3.81836 q 0,0.458984 0.3125,0.458984 0.322266,0 1.005859,-0.478516 v 1.083985 q -0.605468,0.390625 -0.976562,0.527344 -0.361328,0.146484 -0.761719,0.146484 -1.142578,0 -1.347656,-0.898438 -1.132813,0.878907 -2.41211,0.878907 -0.9375,0 -1.5625,-0.615235 -0.625,-0.625 -0.625,-1.5625 0,-0.849609 0.605469,-1.513672 0.615235,-0.673828 1.738281,-1.064453 l 2.275391,-0.78125 v -0.478515 q 0,-1.621094 -1.621094,-1.621094 -1.455078,0 -2.832031,1.503906 v -1.943359 q 1.035156,-1.220703 2.978516,-1.220703 1.455078,0 2.333984,0.761718 0.292969,0.244141 0.527344,0.654297 0.234375,0.400391 0.292969,0.810547 0.06836,0.400391 0.06836,1.533203 z m -1.748047,3.623047 v -2.666015 l -1.191406,0.458984 q -0.908203,0.361328 -1.289063,0.732422 -0.371093,0.361328 -0.371093,0.908203 0,0.556641 0.351562,0.908203 0.361328,0.351563 0.927734,0.351563 0.84961,0 1.572266,-0.69336 z"
           id="path63" />
        <path
           d="m -61.820312,29.441406 3.339843,-3.28125 v 1.855469 h 2.841797 v 1.601562 h -2.841797 v 4.404297 q 0,1.542969 1.279297,1.542969 0.957031,0 2.021485,-0.644531 v 1.660156 q -1.025391,0.576172 -2.236329,0.576172 -1.220703,0 -2.03125,-0.712891 -0.253906,-0.214843 -0.419921,-0.478515 -0.166016,-0.273438 -0.283204,-0.703125 -0.107421,-0.439453 -0.107421,-1.660157 v -3.984375 h -1.5625 z"
           id="path65" />
        <path
           d="m -52.962891,24.236328 q 0.439454,0 0.751954,0.302734 0.3125,0.302735 0.3125,0.742188 0,0.429687 -0.3125,0.742187 -0.3125,0.3125 -0.751954,0.3125 -0.410156,0 -0.722656,-0.3125 -0.3125,-0.322265 -0.3125,-0.742187 0,-0.410156 0.3125,-0.722656 0.3125,-0.322266 0.722656,-0.322266 z m -0.878906,3.779297 h 1.777344 V 37 h -1.777344 z"
           id="path67" />
        <path
           d="m -45.208984,27.996094 q 2.050781,0 3.408203,1.328125 1.357422,1.318359 1.357422,3.320312 0,1.94336 -1.376953,3.232422 -1.376954,1.279297 -3.466797,1.279297 -2.021485,0 -3.378907,-1.298828 -1.357421,-1.308594 -1.357421,-3.261719 0,-1.972656 1.367187,-3.28125 1.376953,-1.318359 3.447266,-1.318359 z m -0.09766,1.601562 q -1.279296,0 -2.099609,0.839844 -0.820312,0.839844 -0.820312,2.138672 0,1.289062 0.839843,2.109375 0.839844,0.810547 2.158203,0.810547 1.308594,0 2.138672,-0.820313 0.839844,-0.830078 0.839844,-2.11914 0,-1.279297 -0.869141,-2.119141 -0.86914,-0.839844 -2.1875,-0.839844 z"
           id="path69" />
        <path
           d="m -36.673828,28.015625 v 1.142578 q 1.191406,-1.318359 2.705078,-1.318359 0.839844,0 1.5625,0.439453 0.722656,0.429687 1.09375,1.191406 0.380859,0.751953 0.380859,2.392578 V 37 h -1.777343 v -5.117188 q 0,-1.376953 -0.419922,-1.96289 -0.419922,-0.595703 -1.40625,-0.595703 -1.259766,0 -2.138672,1.259765 V 37 h -1.816406 v -8.984375 z"
           id="path71" />
        <path
           d="M -22.640625,36.980469 V 23.357422 h 4.599609 q 2.783203,0 4.404297,0.839844 1.621094,0.830078 2.578125,2.451171 0.957031,1.621094 0.957031,3.535157 0,1.367187 -0.527343,2.617187 -0.527344,1.25 -1.503907,2.197266 -0.996093,0.976562 -2.314453,1.474609 -0.771484,0.302735 -1.416015,0.410156 -0.644531,0.09766 -2.460938,0.09766 z m 4.394531,-11.884766 H -20.6875 v 10.146484 h 2.5 q 1.464844,0 2.275391,-0.195312 0.810546,-0.205078 1.347656,-0.507813 0.546875,-0.3125 0.996094,-0.761718 1.445312,-1.464844 1.445312,-3.701172 0,-2.197266 -1.484375,-3.583985 -0.546875,-0.517578 -1.259766,-0.849609 -0.703125,-0.332031 -1.33789,-0.439453 -0.634766,-0.107422 -2.041016,-0.107422 z"
           id="path73" />
        <path
           d="m -6,28.015625 v 2.060547 l 0.097656,-0.15625 q 1.2890625,-2.080078 2.5781249,-2.080078 1.0058594,0 2.0996094,1.015625 l -0.9375,1.5625 q -0.9277344,-0.878907 -1.71875,-0.878907 -0.859375,0 -1.4941406,0.820313 Q -6,31.179687 -6,32.302734 V 37 h -1.7871094 v -8.984375 z"
           id="path75" />
        <path
           d="m 5.6699219,31.599609 v 3.81836 q 0,0.458984 0.3125,0.458984 0.3222656,0 1.0058593,-0.478516 v 1.083985 Q 6.3828125,36.873047 6.0117187,37.009766 5.6503906,37.15625 5.25,37.15625 q -1.1425781,0 -1.3476562,-0.898438 -1.1328125,0.878907 -2.4121094,0.878907 -0.93750003,0 -1.56250002,-0.615235 -0.625,-0.625 -0.625,-1.5625 0,-0.849609 0.60546875,-1.513672 Q 0.5234375,32.771484 1.6464844,32.380859 L 3.921875,31.599609 V 31.121094 Q 3.921875,29.5 2.3007813,29.5 0.84570313,29.5 -0.53125,31.003906 v -1.943359 q 1.03515625,-1.220703 2.9785156,-1.220703 1.4550782,0 2.3339844,0.761718 0.2929687,0.244141 0.5273437,0.654297 0.234375,0.400391 0.2929688,0.810547 0.068359,0.400391 0.068359,1.533203 z M 3.921875,35.222656 v -2.666015 l -1.1914062,0.458984 q -0.9082032,0.361328 -1.2890626,0.732422 -0.3710937,0.361328 -0.3710937,0.908203 0,0.556641 0.3515625,0.908203 0.3613281,0.351563 0.9277344,0.351563 0.8496094,0 1.5722656,-0.69336 z"
           id="path77" />
        <path
           d="m 8.7851563,28.015625 v -0.537109 q 0,-2.167969 0.9179687,-3.232422 0.927734,-1.064453 2.216797,-1.064453 0.556641,0 1.318359,0.175781 v 1.738281 q -0.429687,-0.15625 -0.820312,-0.15625 -1.044922,0 -1.455078,0.556641 -0.400391,0.55664 -0.400391,1.982422 v 0.537109 h 1.601563 v 1.601562 H 10.5625 V 37 H 8.7851563 V 29.617187 H 7.4960937 v -1.601562 z"
           id="path79" />
        <path
           d="m 12.320313,29.441406 3.339843,-3.28125 v 1.855469 h 2.841797 v 1.601562 h -2.841797 v 4.404297 q 0,1.542969 1.279297,1.542969 0.957031,0 2.021484,-0.644531 v 1.660156 q -1.02539,0.576172 -2.236328,0.576172 -1.220703,0 -2.03125,-0.712891 -0.253906,-0.214843 -0.419921,-0.478515 -0.166016,-0.273438 -0.283204,-0.703125 -0.107421,-0.439453 -0.107421,-1.660157 v -3.984375 h -1.5625 z"
           id="path81" />
      </g>
    </g>
  </g>
</svg>
