<?xml version="1.0" encoding="UTF-8" standalone="no"?>
<svg
   version="1.1"
   width="25"
   height="380"
   viewBox="0 0 25 380"
   enable-background="new 0 0 25 380"
   id="svg14"
   xmlns="http://www.w3.org/2000/svg"
   xmlns:svg="http://www.w3.org/2000/svg">
  <defs
     id="defs18" />
  <g
     id="g12">
    <path
       id="rect4"
       style="clip-rule:evenodd;fill:#1a5e9a;fill-rule:evenodd"
       d="M 0,0 H 25 V 380 H 0 Z" />
    <g
       transform="rotate(-90,19,37)"
       id="g10">
      <g
         aria-label="W3C Candidate Registry Draft"
         id="text8"
         style="fill:#ffffff">
        <path
           d="m -215.52148,23.357422 h 1.94336 l -5.51758,13.701172 h -0.41992 l -4.4629,-11.09375 -4.50195,11.09375 h -0.41992 l -5.49805,-13.701172 h 1.96289 l 3.75977,9.404297 3.7793,-9.404297 h 1.85546 l 3.79883,9.404297 z"
           id="path21" />
        <path
           d="m -209.93555,29.060547 h 0.11719 q 1.2793,0 1.94336,-0.527344 0.67383,-0.527344 0.67383,-1.533203 0,-0.908203 -0.6543,-1.474609 -0.64453,-0.566407 -1.69922,-0.566407 -1.06445,0 -2.36328,0.664063 v -1.865235 q 1.19141,-0.595703 2.59766,-0.595703 1.88476,0 2.96875,0.986328 1.09375,0.986329 1.09375,2.695313 0,1.035156 -0.41992,1.748047 -0.41993,0.703125 -1.33789,1.210937 0.80078,0.3125 1.17187,0.771485 0.37109,0.449218 0.57617,1.09375 0.20508,0.644531 0.20508,1.367187 0,1.78711 -1.19141,2.958985 -1.1914,1.162109 -3.00781,1.162109 -1.55273,0 -2.99805,-0.751953 v -2.128906 q 1.54297,0.966796 2.99805,0.966796 0.98633,0 1.58203,-0.585937 0.60547,-0.585938 0.60547,-1.552734 0,-0.810547 -0.49805,-1.416016 -0.29296,-0.341797 -0.65429,-0.498047 -0.35156,-0.166016 -1.53321,-0.3125 l -0.17578,-0.01953 z"
           id="path23" />
        <path
           d="m -190.27734,33.835937 v 2.148438 q -2.14844,1.171875 -4.96094,1.171875 -2.28516,0 -3.87695,-0.917969 -1.5918,-0.917969 -2.51954,-2.529297 -0.92773,-1.611328 -0.92773,-3.486328 0,-2.978515 2.11914,-5.009765 2.12891,-2.03125 5.24414,-2.03125 2.14844,0 4.77539,1.123046 v 2.09961 q -2.39258,-1.367188 -4.67773,-1.367188 -2.34375,0 -3.89649,1.484375 -1.54297,1.47461 -1.54297,3.701172 0,2.246094 1.52344,3.691406 1.52344,1.445313 3.89649,1.445313 2.48047,0 4.84375,-1.523438 z"
           id="path25" />
        <path
           d="m -170.55078,33.835937 v 2.148438 q -2.14844,1.171875 -4.96094,1.171875 -2.28515,0 -3.87695,-0.917969 -1.5918,-0.917969 -2.51953,-2.529297 -0.92774,-1.611328 -0.92774,-3.486328 0,-2.978515 2.11914,-5.009765 2.12891,-2.03125 5.24414,-2.03125 2.14844,0 4.77539,1.123046 v 2.09961 q -2.39257,-1.367188 -4.67773,-1.367188 -2.34375,0 -3.89648,1.484375 -1.54297,1.47461 -1.54297,3.701172 0,2.246094 1.52343,3.691406 1.52344,1.445313 3.89649,1.445313 2.48047,0 4.84375,-1.523438 z"
           id="path27" />
        <path
           d="m -162.72852,31.599609 v 3.81836 q 0,0.458984 0.3125,0.458984 0.32227,0 1.00586,-0.478516 v 1.083985 q -0.60546,0.390625 -0.97656,0.527344 -0.36133,0.146484 -0.76172,0.146484 -1.14258,0 -1.34765,-0.898438 -1.13282,0.878907 -2.41211,0.878907 -0.9375,0 -1.5625,-0.615235 -0.625,-0.625 -0.625,-1.5625 0,-0.849609 0.60547,-1.513672 0.61523,-0.673828 1.73828,-1.064453 l 2.27539,-0.78125 v -0.478515 q 0,-1.621094 -1.6211,-1.621094 -1.45507,0 -2.83203,1.503906 v -1.943359 q 1.03516,-1.220703 2.97852,-1.220703 1.45508,0 2.33398,0.761718 0.29297,0.244141 0.52735,0.654297 0.23437,0.400391 0.29297,0.810547 0.0684,0.400391 0.0684,1.533203 z m -1.74804,3.623047 v -2.666015 l -1.19141,0.458984 q -0.9082,0.361328 -1.28906,0.732422 -0.37109,0.361328 -0.37109,0.908203 0,0.556641 0.35156,0.908203 0.36133,0.351563 0.92773,0.351563 0.84961,0 1.57227,-0.69336 z"
           id="path29" />
        <path
           d="m -158.04102,28.015625 v 1.142578 q 1.19141,-1.318359 2.70508,-1.318359 0.83985,0 1.5625,0.439453 0.72266,0.429687 1.09375,1.191406 0.38086,0.751953 0.38086,2.392578 V 37 h -1.77734 v -5.117188 q 0,-1.376953 -0.41992,-1.96289 -0.41993,-0.595703 -1.40625,-0.595703 -1.25977,0 -2.13868,1.259765 V 37 h -1.8164 v -8.984375 z"
           id="path31" />
        <path
           d="m -143.82227,23.357422 h 1.78711 V 37 h -3.79882 q -1.99219,0 -3.1836,-1.259766 -1.18164,-1.259765 -1.18164,-3.378906 0,-1.982422 1.24024,-3.261719 1.25,-1.279297 3.18359,-1.279297 0.89844,0 1.95312,0.38086 z m 0,12.11914 v -5.693359 q -0.83007,-0.419922 -1.67968,-0.419922 -1.32813,0 -2.11914,0.869141 -0.78125,0.86914 -0.78125,2.34375 0,1.386719 0.68359,2.138672 0.41016,0.449218 0.86914,0.605468 0.45899,0.15625 1.65039,0.15625 z"
           id="path33" />
        <path
           d="m -138.70508,24.236328 q 0.43946,0 0.75196,0.302734 0.3125,0.302735 0.3125,0.742188 0,0.429687 -0.3125,0.742187 -0.3125,0.3125 -0.75196,0.3125 -0.41015,0 -0.72265,-0.3125 -0.3125,-0.322265 -0.3125,-0.742187 0,-0.410156 0.3125,-0.722656 0.3125,-0.322266 0.72265,-0.322266 z m -0.8789,3.779297 h 1.77734 V 37 h -1.77734 z"
           id="path35" />
        <path
           d="m -129.25195,23.357422 h 1.78711 V 37 h -3.79883 q -1.99219,0 -3.1836,-1.259766 -1.18164,-1.259765 -1.18164,-3.378906 0,-1.982422 1.24024,-3.261719 1.25,-1.279297 3.18359,-1.279297 0.89844,0 1.95313,0.38086 z m 0,12.11914 v -5.693359 q -0.83008,-0.419922 -1.67969,-0.419922 -1.32813,0 -2.11914,0.869141 -0.78125,0.86914 -0.78125,2.34375 0,1.386719 0.68359,2.138672 0.41016,0.449218 0.86914,0.605468 0.45899,0.15625 1.65039,0.15625 z"
           id="path37" />
        <path
           d="m -119.4082,31.599609 v 3.81836 q 0,0.458984 0.3125,0.458984 0.32226,0 1.00586,-0.478516 v 1.083985 q -0.60547,0.390625 -0.97657,0.527344 -0.36132,0.146484 -0.76172,0.146484 -1.14257,0 -1.34765,-0.898438 -1.13281,0.878907 -2.41211,0.878907 -0.9375,0 -1.5625,-0.615235 -0.625,-0.625 -0.625,-1.5625 0,-0.849609 0.60547,-1.513672 0.61523,-0.673828 1.73828,-1.064453 l 2.27539,-0.78125 v -0.478515 q 0,-1.621094 -1.62109,-1.621094 -1.45508,0 -2.83204,1.503906 v -1.943359 q 1.03516,-1.220703 2.97852,-1.220703 1.45508,0 2.33398,0.761718 0.29297,0.244141 0.52735,0.654297 0.23437,0.400391 0.29297,0.810547 0.0684,0.400391 0.0684,1.533203 z m -1.74805,3.623047 v -2.666015 l -1.19141,0.458984 q -0.9082,0.361328 -1.28906,0.732422 -0.37109,0.361328 -0.37109,0.908203 0,0.556641 0.35156,0.908203 0.36133,0.351563 0.92773,0.351563 0.84961,0 1.57227,-0.69336 z"
           id="path39" />
        <path
           d="m -117.75781,29.441406 3.33984,-3.28125 v 1.855469 h 2.8418 v 1.601562 h -2.8418 v 4.404297 q 0,1.542969 1.2793,1.542969 0.95703,0 2.02148,-0.644531 v 1.660156 q -1.02539,0.576172 -2.23633,0.576172 -1.2207,0 -2.03125,-0.712891 -0.2539,-0.214843 -0.41992,-0.478515 -0.16601,-0.273438 -0.2832,-0.703125 -0.10742,-0.439453 -0.10742,-1.660157 v -3.984375 h -1.5625 z"
           id="path41" />
        <path
           d="m -102.16211,32.664062 h -6.31836 q 0.0684,1.289063 0.85938,2.050782 0.80078,0.761718 2.06054,0.761718 1.75782,0 3.24219,-1.09375 v 1.738282 q -0.82031,0.546875 -1.63086,0.78125 -0.80078,0.234375 -1.88476,0.234375 -1.48438,0 -2.40235,-0.615235 -0.91797,-0.615234 -1.47461,-1.65039 -0.54687,-1.044922 -0.54687,-2.41211 0,-2.050781 1.16211,-3.330078 1.16211,-1.289062 3.01757,-1.289062 1.78711,0 2.85157,1.25 1.06445,1.25 1.06445,3.349609 z m -6.2793,-1.064453 h 4.52149 q -0.0684,-1.064453 -0.63477,-1.640625 -0.5664,-0.576172 -1.52344,-0.576172 -0.95703,0 -1.57226,0.576172 -0.60547,0.576172 -0.79102,1.640625 z"
           id="path43" />
        <path
           d="M -94.398437,37 V 23.357422 h 3.417968 q 2.070313,0 3.28125,1.02539 1.220703,1.025391 1.220703,2.773438 0,1.191406 -0.595703,2.060547 -0.595703,0.86914 -1.708984,1.298828 0.654297,0.429687 1.279297,1.171875 0.625,0.742187 1.757812,2.587891 0.712891,1.162109 1.142578,1.748046 L -83.880859,37 h -2.324219 l -0.595703,-0.898438 q -0.0293,-0.04883 -0.117188,-0.166015 l -0.380859,-0.53711 -0.605469,-0.996093 -0.654297,-1.064453 Q -89.164062,32.498047 -89.671875,32 -90.169922,31.501953 -90.580078,31.287109 -90.980469,31.0625 -91.9375,31.0625 h -0.507812 V 37 Z m 2.539062,-11.982422 h -0.585937 v 4.306641 h 0.742187 q 1.484375,0 2.03125,-0.253907 0.556641,-0.253906 0.859375,-0.761718 0.3125,-0.517578 0.3125,-1.171875 0,-0.644532 -0.341797,-1.16211 -0.341797,-0.527343 -0.966797,-0.742187 -0.615234,-0.214844 -2.050781,-0.214844 z"
           id="path45" />
        <path
           d="m -74.974609,32.664062 h -6.31836 q 0.06836,1.289063 0.859375,2.050782 0.800782,0.761718 2.060547,0.761718 1.757813,0 3.242188,-1.09375 v 1.738282 q -0.820313,0.546875 -1.63086,0.78125 -0.800781,0.234375 -1.884765,0.234375 -1.484375,0 -2.402344,-0.615235 -0.917969,-0.615234 -1.474609,-1.65039 -0.546875,-1.044922 -0.546875,-2.41211 0,-2.050781 1.162109,-3.330078 1.162109,-1.289062 3.017578,-1.289062 1.787109,0 2.851563,1.25 1.064453,1.25 1.064453,3.349609 z m -6.279297,-1.064453 h 4.521484 q -0.06836,-1.064453 -0.634765,-1.640625 -0.566407,-0.576172 -1.523438,-0.576172 -0.957031,0 -1.572266,0.576172 -0.605468,0.576172 -0.791015,1.640625 z"
           id="path47" />
        <path
           d="m -73.519531,31.121094 q 0,-1.435547 1.044922,-2.265625 1.054687,-0.839844 2.871093,-0.839844 h 3.701172 v 1.386719 h -1.816406 q 0.527344,0.537109 0.732422,0.976562 0.205078,0.439453 0.205078,1.00586 0,0.703125 -0.400391,1.386718 -0.40039,0.673828 -1.035156,1.035157 -0.625,0.361328 -2.060547,0.576171 -1.005859,0.146485 -1.005859,0.69336 0,0.3125 0.371094,0.517578 0.380859,0.195312 1.367187,0.410156 1.650391,0.361328 2.119141,0.566406 0.478515,0.205079 0.859375,0.585938 0.644531,0.644531 0.644531,1.621094 0,1.279297 -1.142578,2.041015 -1.132813,0.761719 -3.037109,0.761719 -1.923829,0 -3.076172,-0.771484 -1.142578,-0.761719 -1.142578,-2.050782 0,-1.826171 2.255859,-2.353515 -0.898438,-0.576172 -0.898438,-1.142578 0,-0.429688 0.38086,-0.78125 0.390625,-0.351563 1.044922,-0.517578 -1.982422,-0.878907 -1.982422,-2.841797 z m 3.339844,-1.5625 q -0.722657,0 -1.230469,0.488281 -0.507813,0.488281 -0.507813,1.171875 0,0.693359 0.498047,1.152344 0.498047,0.449218 1.259766,0.449218 0.751953,0 1.25,-0.458984 0.507812,-0.46875 0.507812,-1.162109 0,-0.703125 -0.507812,-1.171875 -0.507813,-0.46875 -1.269531,-0.46875 z m -0.419922,7.861328 q -0.898438,0 -1.47461,0.380859 -0.566406,0.38086 -0.566406,0.976563 0,1.386718 2.5,1.386718 1.181641,0 1.826172,-0.351562 0.654297,-0.341797 0.654297,-0.976563 0,-0.625 -0.820313,-1.02539 -0.820312,-0.390625 -2.11914,-0.390625 z"
           id="path49" />
        <path
           d="m -63.587891,24.236328 q 0.439454,0 0.751954,0.302734 0.3125,0.302735 0.3125,0.742188 0,0.429687 -0.3125,0.742187 -0.3125,0.3125 -0.751954,0.3125 -0.410156,0 -0.722656,-0.3125 -0.3125,-0.322265 -0.3125,-0.742187 0,-0.410156 0.3125,-0.722656 0.3125,-0.322266 0.722656,-0.322266 z m -0.878906,3.779297 h 1.777344 V 37 h -1.777344 z"
           id="path51" />
        <path
           d="m -60.570312,36.355469 v -1.914063 q 0.751953,0.527344 1.533203,0.859375 0.791015,0.322266 1.328125,0.322266 0.55664,0 0.957031,-0.273438 0.400391,-0.273437 0.400391,-0.654297 0,-0.390625 -0.263672,-0.644531 -0.253907,-0.263672 -1.113282,-0.751953 -1.71875,-0.957031 -2.255859,-1.630859 -0.527344,-0.683594 -0.527344,-1.484375 0,-1.035157 0.800782,-1.689453 0.810546,-0.654297 2.080078,-0.654297 1.318359,0 2.705078,0.742187 v 1.757813 q -1.582031,-0.957032 -2.587891,-0.957032 -0.517578,0 -0.839844,0.22461 -0.3125,0.214844 -0.3125,0.576172 0,0.3125 0.283204,0.595703 0.292968,0.283203 1.015625,0.683594 l 0.634765,0.361328 q 2.246094,1.269531 2.246094,2.8125 0,1.103515 -0.869141,1.816406 -0.859375,0.703125 -2.216797,0.703125 -0.800781,0 -1.425781,-0.166016 -0.625,-0.175781 -1.572265,-0.634765 z"
           id="path53" />
        <path
           d="m -53.695312,29.441406 3.339843,-3.28125 v 1.855469 h 2.841797 v 1.601562 h -2.841797 v 4.404297 q 0,1.542969 1.279297,1.542969 0.957031,0 2.021485,-0.644531 v 1.660156 q -1.025391,0.576172 -2.236329,0.576172 -1.220703,0 -2.03125,-0.712891 -0.253906,-0.214843 -0.419921,-0.478515 -0.166016,-0.273438 -0.283204,-0.703125 -0.107421,-0.439453 -0.107421,-1.660157 v -3.984375 h -1.5625 z"
           id="path55" />
        <path
           d="m -43.851562,28.015625 v 2.060547 l 0.09766,-0.15625 q 1.289062,-2.080078 2.578125,-2.080078 1.005859,0 2.099609,1.015625 l -0.9375,1.5625 q -0.927734,-0.878907 -1.71875,-0.878907 -0.859375,0 -1.49414,0.820313 -0.625,0.820312 -0.625,1.943359 V 37 h -1.78711 v -8.984375 z"
           id="path57" />
        <path
           d="m -31.717773,28.015625 h 2.001953 l -6.357422,13.564453 h -1.982422 l 3.056641,-6.503906 -3.476563,-7.060547 h 2.021484 l 2.421875,5.068359 z"
           id="path59" />
        <path
           d="M -22.640625,36.980469 V 23.357422 h 4.599609 q 2.783203,0 4.404297,0.839844 1.621094,0.830078 2.578125,2.451171 0.957031,1.621094 0.957031,3.535157 0,1.367187 -0.527343,2.617187 -0.527344,1.25 -1.503907,2.197266 -0.996093,0.976562 -2.314453,1.474609 -0.771484,0.302735 -1.416015,0.410156 -0.644531,0.09766 -2.460938,0.09766 z m 4.394531,-11.884766 H -20.6875 v 10.146484 h 2.5 q 1.464844,0 2.275391,-0.195312 0.810546,-0.205078 1.347656,-0.507813 0.546875,-0.3125 0.996094,-0.761718 1.445312,-1.464844 1.445312,-3.701172 0,-2.197266 -1.484375,-3.583985 -0.546875,-0.517578 -1.259766,-0.849609 -0.703125,-0.332031 -1.33789,-0.439453 -0.634766,-0.107422 -2.041016,-0.107422 z"
           id="path61" />
        <path
           d="m -6,28.015625 v 2.060547 l 0.097656,-0.15625 q 1.2890625,-2.080078 2.5781249,-2.080078 1.0058594,0 2.0996094,1.015625 l -0.9375,1.5625 q -0.9277344,-0.878907 -1.71875,-0.878907 -0.859375,0 -1.4941406,0.820313 Q -6,31.179687 -6,32.302734 V 37 h -1.7871094 v -8.984375 z"
           id="path63" />
        <path
           d="m 5.6699219,31.599609 v 3.81836 q 0,0.458984 0.3125,0.458984 0.3222656,0 1.0058593,-0.478516 v 1.083985 Q 6.3828125,36.873047 6.0117187,37.009766 5.6503906,37.15625 5.25,37.15625 q -1.1425781,0 -1.3476562,-0.898438 -1.1328125,0.878907 -2.4121094,0.878907 -0.93750003,0 -1.56250002,-0.615235 -0.625,-0.625 -0.625,-1.5625 0,-0.849609 0.60546875,-1.513672 Q 0.5234375,32.771484 1.6464844,32.380859 L 3.921875,31.599609 V 31.121094 Q 3.921875,29.5 2.3007813,29.5 0.84570313,29.5 -0.53125,31.003906 v -1.943359 q 1.03515625,-1.220703 2.9785156,-1.220703 1.4550782,0 2.3339844,0.761718 0.2929687,0.244141 0.5273437,0.654297 0.234375,0.400391 0.2929688,0.810547 0.068359,0.400391 0.068359,1.533203 z M 3.921875,35.222656 v -2.666015 l -1.1914062,0.458984 q -0.9082032,0.361328 -1.2890626,0.732422 -0.3710937,0.361328 -0.3710937,0.908203 0,0.556641 0.3515625,0.908203 0.3613281,0.351563 0.9277344,0.351563 0.8496094,0 1.5722656,-0.69336 z"
           id="path65" />
        <path
           d="m 8.7851563,28.015625 v -0.537109 q 0,-2.167969 0.9179687,-3.232422 0.927734,-1.064453 2.216797,-1.064453 0.556641,0 1.318359,0.175781 v 1.738281 q -0.429687,-0.15625 -0.820312,-0.15625 -1.044922,0 -1.455078,0.556641 -0.400391,0.55664 -0.400391,1.982422 v 0.537109 h 1.601563 v 1.601562 H 10.5625 V 37 H 8.7851563 V 29.617187 H 7.4960937 v -1.601562 z"
           id="path67" />
        <path
           d="m 12.320313,29.441406 3.339843,-3.28125 v 1.855469 h 2.841797 v 1.601562 h -2.841797 v 4.404297 q 0,1.542969 1.279297,1.542969 0.957031,0 2.021484,-0.644531 v 1.660156 q -1.02539,0.576172 -2.236328,0.576172 -1.220703,0 -2.03125,-0.712891 -0.253906,-0.214843 -0.419921,-0.478515 -0.166016,-0.273438 -0.283204,-0.703125 -0.107421,-0.439453 -0.107421,-1.660157 v -3.984375 h -1.5625 z"
           id="path69" />
      </g>
    </g>
  </g>
</svg>
