<svg xmlns="http://www.w3.org/2000/svg" x="0px" y="0px"
width="25" height="25"
viewBox="0 0 50 50"
style=" fill:#707070;"><path d="M 19.984375 1.9863281 A 1.0001 1.0001 0 0 0 19 3 L 19 8 A 1.0001 1.0001 0 1 0 21 8 L 21 3 A 1.0001 1.0001 0 0 0 19.984375 1.9863281 z M 45.980469 2.9902344 A 1.0001 1.0001 0 0 0 45.292969 3.2929688 L 3.2929688 45.292969 A 1.0001 1.0001 0 1 0 4.7070312 46.707031 L 46.707031 4.7070312 A 1.0001 1.0001 0 0 0 45.980469 2.9902344 z M 7.96875 6.96875 A 1.0001 1.0001 0 0 0 7.2714844 8.6855469 L 10.808594 12.222656 A 1.0001 1.0001 0 1 0 12.222656 10.808594 L 8.6855469 7.2714844 A 1.0001 1.0001 0 0 0 7.96875 6.96875 z M 32.001953 6.96875 A 1.0001 1.0001 0 0 0 31.314453 7.2714844 L 27.777344 10.808594 A 1.0001 1.0001 0 1 0 29.191406 12.222656 L 32.728516 8.6855469 A 1.0001 1.0001 0 0 0 32.001953 6.96875 z M 20.001953 11.007812 C 17.697328 11.007812 15.391719 11.885625 13.636719 13.640625 C 11.935719 15.339625 11 17.601859 11 20.005859 C 11 22.408859 11.936719 24.668188 13.636719 26.367188 C 14.141719 26.872188 14.694344 27.293391 15.277344 27.650391 L 16.746094 26.181641 C 16.137094 25.865641 15.561781 25.464125 15.050781 24.953125 C 13.728781 23.631125 13 21.874859 13 20.005859 C 13 18.135859 13.728781 16.376688 15.050781 15.054688 C 16.415781 13.690687 18.207 13.007813 20 13.007812 C 21.793 13.007812 23.584219 13.690687 24.949219 15.054688 C 25.454219 15.559688 25.860641 16.133047 26.181641 16.748047 L 27.650391 15.279297 C 27.289391 14.692297 26.864234 14.139625 26.365234 13.640625 C 24.610734 11.885625 22.306578 11.007812 20.001953 11.007812 z M 44.984375 15.986328 A 1.0001 1.0001 0 0 0 44 17 L 44 18 L 43 18 A 1.0001 1.0001 0 1 0 43 20 L 44 20 L 44 21 A 1.0001 1.0001 0 1 0 46 21 L 46 20 L 47 20 A 1.0001 1.0001 0 1 0 47 18 L 46 18 L 46 17 A 1.0001 1.0001 0 0 0 44.984375 15.986328 z M 3 19 A 1.0001 1.0001 0 1 0 3 21 L 8 21 A 1.0001 1.0001 0 1 0 8 19 L 3 19 z M 37.5 25 C 31.712628 25 27 29.712628 27 35.5 C 27 41.287372 31.712628 46 37.5 46 C 43.287372 46 48 41.287372 48 35.5 C 48 35.262723 47.97994 35.077373 47.972656 34.941406 A 1.0001 1.0001 0 0 0 46.130859 34.457031 C 45.153502 35.985739 43.454476 37 41.5 37 C 38.45039 37 36 34.54961 36 31.5 C 36 29.545524 37.014261 27.846498 38.542969 26.869141 A 1.0001 1.0001 0 0 0 38.058594 25.027344 C 37.922627 25.02006 37.737277 25 37.5 25 z M 35.34375 27.433594 C 34.552049 28.621678 34 29.969352 34 31.5 C 34 35.63039 37.36961 39 41.5 39 C 43.030648 39 44.378322 38.447951 45.566406 37.65625 C 44.596955 41.284819 41.441121 44 37.5 44 C 32.793372 44 29 40.206628 29 35.5 C 29 31.558879 31.715181 28.403045 35.34375 27.433594 z M 11.496094 27.474609 A 1.0001 1.0001 0 0 0 10.808594 27.777344 L 7.2714844 31.314453 A 1.0001 1.0001 0 1 0 8.6855469 32.728516 L 12.222656 29.191406 A 1.0001 1.0001 0 0 0 11.496094 27.474609 z M 21.984375 41.986328 A 1.0001 1.0001 0 0 0 21 43 L 21 44 L 20 44 A 1.0001 1.0001 0 1 0 20 46 L 21 46 L 21 47 A 1.0001 1.0001 0 1 0 23 47 L 23 46 L 24 46 A 1.0001 1.0001 0 1 0 24 44 L 23 44 L 23 43 A 1.0001 1.0001 0 0 0 21.984375 41.986328 z"></path></svg>
