<?xml version="1.0" encoding="UTF-8" standalone="no"?>
<svg
   version="1.1"
   width="25"
   height="380"
   viewBox="0 0 25 380"
   enable-background="new 0 0 25 380"
   id="svg14"
   xmlns="http://www.w3.org/2000/svg"
   xmlns:svg="http://www.w3.org/2000/svg">
  <defs
     id="defs18" />
  <g
     id="g12">
    <path
       id="rect4"
       style="clip-rule:evenodd;fill:#1a5e9a;fill-rule:evenodd"
       d="M 0,0 H 25 V 380 H 0 Z" />
    <g
       transform="rotate(-90,19,37)"
       id="g10">
      <g
         aria-label="W3C Group Draft Note"
         id="text8"
         style="fill:#ffffff">
        <path
           d="m -163.2168,23.357422 h 1.94336 l -5.51758,13.701172 h -0.41992 l -4.46289,-11.09375 -4.50195,11.09375 h -0.41992 l -5.49805,-13.701172 h 1.96289 l 3.75977,9.404297 3.77929,-9.404297 h 1.85547 l 3.79883,9.404297 z"
           id="path21" />
        <path
           d="m -157.63086,29.060547 h 0.11719 q 1.2793,0 1.94336,-0.527344 0.67383,-0.527344 0.67383,-1.533203 0,-0.908203 -0.6543,-1.474609 -0.64453,-0.566407 -1.69922,-0.566407 -1.06445,0 -2.36328,0.664063 v -1.865235 q 1.19141,-0.595703 2.59766,-0.595703 1.88476,0 2.96875,0.986328 1.09375,0.986329 1.09375,2.695313 0,1.035156 -0.41993,1.748047 -0.41992,0.703125 -1.33789,1.210937 0.80078,0.3125 1.17188,0.771485 0.37109,0.449218 0.57617,1.09375 0.20508,0.644531 0.20508,1.367187 0,1.78711 -1.19141,2.958985 -1.1914,1.162109 -3.00781,1.162109 -1.55274,0 -2.99805,-0.751953 v -2.128906 q 1.54297,0.966796 2.99805,0.966796 0.98633,0 1.58203,-0.585937 0.60547,-0.585938 0.60547,-1.552734 0,-0.810547 -0.49805,-1.416016 -0.29297,-0.341797 -0.65429,-0.498047 -0.35157,-0.166016 -1.53321,-0.3125 l -0.17578,-0.01953 z"
           id="path23" />
        <path
           d="m -137.97266,33.835937 v 2.148438 q -2.14843,1.171875 -4.96093,1.171875 -2.28516,0 -3.87696,-0.917969 -1.59179,-0.917969 -2.51953,-2.529297 -0.92773,-1.611328 -0.92773,-3.486328 0,-2.978515 2.11914,-5.009765 2.1289,-2.03125 5.24414,-2.03125 2.14844,0 4.77539,1.123046 v 2.09961 q -2.39258,-1.367188 -4.67773,-1.367188 -2.34375,0 -3.89649,1.484375 -1.54297,1.47461 -1.54297,3.701172 0,2.246094 1.52344,3.691406 1.52344,1.445313 3.89648,1.445313 2.48047,0 4.84375,-1.523438 z"
           id="path25" />
        <path
           d="m -122.63086,30.28125 h 4.58008 v 5.78125 q -2.51953,1.09375 -5,1.09375 -3.38867,0 -5.41992,-1.972656 -2.02149,-1.982422 -2.02149,-4.882813 0,-3.05664 2.09961,-5.08789 2.09961,-2.03125 5.26367,-2.03125 1.15235,0 2.1875,0.253906 1.03516,0.24414 2.61719,0.908203 v 1.992187 q -2.44141,-1.416015 -4.84375,-1.416015 -2.23633,0 -3.76953,1.523437 -1.5332,1.523438 -1.5332,3.740235 0,2.324218 1.5332,3.798828 1.5332,1.474609 3.94531,1.474609 1.17188,0 2.80274,-0.537109 l 0.18554,-0.05859 v -2.841797 h -2.62695 z"
           id="path27" />
        <path
           d="m -113.53906,28.015625 v 2.060547 l 0.0977,-0.15625 q 1.28907,-2.080078 2.57813,-2.080078 1.00586,0 2.09961,1.015625 l -0.9375,1.5625 q -0.92774,-0.878907 -1.71875,-0.878907 -0.85938,0 -1.49414,0.820313 -0.625,0.820312 -0.625,1.943359 V 37 h -1.78711 v -8.984375 z"
           id="path29" />
        <path
           d="m -103.7002,27.996094 q 2.05079,0 3.40821,1.328125 1.35742,1.318359 1.35742,3.320312 0,1.94336 -1.37695,3.232422 -1.37696,1.279297 -3.4668,1.279297 -2.02148,0 -3.37891,-1.298828 -1.35742,-1.308594 -1.35742,-3.261719 0,-1.972656 1.36719,-3.28125 1.37695,-1.318359 3.44726,-1.318359 z m -0.0977,1.601562 q -1.2793,0 -2.09961,0.839844 -0.82031,0.839844 -0.82031,2.138672 0,1.289062 0.83984,2.109375 0.83984,0.810547 2.1582,0.810547 1.3086,0 2.13868,-0.820313 0.83984,-0.830078 0.83984,-2.11914 0,-1.279297 -0.86914,-2.119141 -0.86914,-0.839844 -2.1875,-0.839844 z"
           id="path31" />
        <path
           d="m -91.205078,37 v -1.142578 q -0.566406,0.615234 -1.298828,0.957031 -0.722656,0.341797 -1.445313,0.341797 -0.849609,0 -1.572265,-0.419922 -0.712891,-0.429687 -1.083985,-1.152344 -0.361328,-0.732422 -0.361328,-2.421875 v -5.146484 h 1.777344 v 5.126953 q 0,1.416016 0.400391,1.982422 0.410156,0.556641 1.425781,0.556641 1.269531,0 2.158203,-1.240235 v -6.425781 h 1.777344 V 37 Z"
           id="path33" />
        <path
           d="M -87.044922,41.580078 V 28.015625 h 3.115235 q 2.392578,0 3.720703,1.191406 1.33789,1.191406 1.33789,3.330078 0,2.021485 -1.259765,3.320313 -1.25,1.298828 -3.19336,1.298828 -0.859375,0 -1.904297,-0.380859 v 4.804687 z m 3.076172,-11.904297 h -1.259766 v 5.527344 q 0.820313,0.419922 1.71875,0.419922 1.25,0 2.041016,-0.869141 0.800781,-0.86914 0.800781,-2.236328 0,-0.878906 -0.380859,-1.552734 -0.371094,-0.673828 -1.025391,-0.976563 -0.644531,-0.3125 -1.894531,-0.3125 z"
           id="path35" />
        <path
           d="M -71.117187,36.980469 V 23.357422 h 4.599609 q 2.783203,0 4.404297,0.839844 1.621094,0.830078 2.578125,2.451171 0.957031,1.621094 0.957031,3.535157 0,1.367187 -0.527344,2.617187 -0.527343,1.25 -1.503906,2.197266 -0.996094,0.976562 -2.314453,1.474609 -0.771484,0.302735 -1.416016,0.410156 -0.644531,0.09766 -2.460937,0.09766 z m 4.394531,-11.884766 h -2.441406 v 10.146484 h 2.5 q 1.464843,0 2.27539,-0.195312 0.810547,-0.205078 1.347656,-0.507813 0.546875,-0.3125 0.996094,-0.761718 1.445313,-1.464844 1.445313,-3.701172 0,-2.197266 -1.484375,-3.583985 -0.546875,-0.517578 -1.259766,-0.849609 -0.703125,-0.332031 -1.337891,-0.439453 -0.634765,-0.107422 -2.041015,-0.107422 z"
           id="path37" />
        <path
           d="m -54.476562,28.015625 v 2.060547 l 0.09766,-0.15625 q 1.289062,-2.080078 2.578125,-2.080078 1.005859,0 2.099609,1.015625 l -0.9375,1.5625 q -0.927734,-0.878907 -1.71875,-0.878907 -0.859375,0 -1.49414,0.820313 -0.625,0.820312 -0.625,1.943359 V 37 h -1.78711 v -8.984375 z"
           id="path39" />
        <path
           d="m -42.806641,31.599609 v 3.81836 q 0,0.458984 0.3125,0.458984 0.322266,0 1.00586,-0.478516 v 1.083985 q -0.605469,0.390625 -0.976563,0.527344 -0.361328,0.146484 -0.761718,0.146484 -1.142579,0 -1.347657,-0.898438 -1.132812,0.878907 -2.412109,0.878907 -0.9375,0 -1.5625,-0.615235 -0.625,-0.625 -0.625,-1.5625 0,-0.849609 0.605469,-1.513672 0.615234,-0.673828 1.738281,-1.064453 l 2.275391,-0.78125 v -0.478515 q 0,-1.621094 -1.621094,-1.621094 -1.455078,0 -2.832031,1.503906 v -1.943359 q 1.035156,-1.220703 2.978515,-1.220703 1.455078,0 2.333985,0.761718 0.292968,0.244141 0.527343,0.654297 0.234375,0.400391 0.292969,0.810547 0.06836,0.400391 0.06836,1.533203 z m -1.748046,3.623047 v -2.666015 l -1.191407,0.458984 q -0.908203,0.361328 -1.289062,0.732422 -0.371094,0.361328 -0.371094,0.908203 0,0.556641 0.351563,0.908203 0.361328,0.351563 0.927734,0.351563 0.849609,0 1.572266,-0.69336 z"
           id="path41" />
        <path
           d="m -39.691406,28.015625 v -0.537109 q 0,-2.167969 0.917969,-3.232422 0.927734,-1.064453 2.216796,-1.064453 0.556641,0 1.31836,0.175781 v 1.738281 q -0.429688,-0.15625 -0.820313,-0.15625 -1.044922,0 -1.455078,0.556641 -0.40039,0.55664 -0.40039,1.982422 v 0.537109 h 1.601562 v 1.601562 h -1.601562 V 37 h -1.777344 v -7.382813 h -1.289063 v -1.601562 z"
           id="path43" />
        <path
           d="m -36.15625,29.441406 3.339844,-3.28125 v 1.855469 h 2.841797 v 1.601562 h -2.841797 v 4.404297 q 0,1.542969 1.279297,1.542969 0.957031,0 2.021484,-0.644531 v 1.660156 q -1.025391,0.576172 -2.236328,0.576172 -1.220703,0 -2.03125,-0.712891 -0.253906,-0.214843 -0.419922,-0.478515 -0.166016,-0.273438 -0.283203,-0.703125 -0.107422,-0.439453 -0.107422,-1.660157 v -3.984375 h -1.5625 z"
           id="path45" />
        <path
           d="m -11.585938,23.357422 h 1.8554692 V 37 H -11.410156 L -20.53125,26.501953 V 37 h -1.835937 V 23.357422 h 1.582031 l 9.199218,10.585937 z"
           id="path47" />
        <path
           d="m -2.7480469,27.996094 q 2.05078128,0 3.40820315,1.328125 1.35742185,1.318359 1.35742185,3.320312 0,1.94336 -1.3769531,3.232422 -1.37695312,1.279297 -3.4667969,1.279297 -2.0214843,0 -3.3789062,-1.298828 Q -7.5625,34.548828 -7.5625,32.595703 q 0,-1.972656 1.3671875,-3.28125 1.3769531,-1.318359 3.4472656,-1.318359 z m -0.097656,1.601562 q -1.2792969,0 -2.0996094,0.839844 -0.8203125,0.839844 -0.8203125,2.138672 0,1.289062 0.8398438,2.109375 0.8398437,0.810547 2.1582031,0.810547 1.3085937,0 2.13867185,-0.820313 0.83984375,-0.830078 0.83984375,-2.11914 0,-1.279297 -0.86914062,-2.119141 -0.86914058,-0.839844 -2.18749998,-0.839844 z"
           id="path49" />
        <path
           d="m 2.75,29.441406 3.3398437,-3.28125 v 1.855469 h 2.8417969 v 1.601562 H 6.0898437 v 4.404297 q 0,1.542969 1.2792969,1.542969 0.9570313,0 2.0214844,-0.644531 v 1.660156 q -1.0253906,0.576172 -2.2363281,0.576172 -1.2207032,0 -2.03125,-0.712891 Q 4.8691406,36.228516 4.703125,35.964844 4.5371094,35.691406 4.4199219,35.261719 4.3125,34.822266 4.3125,33.601562 V 29.617187 H 2.75 Z"
           id="path51" />
        <path
           d="m 18.345703,32.664062 h -6.318359 q 0.06836,1.289063 0.859375,2.050782 0.800781,0.761718 2.060547,0.761718 1.757812,0 3.242187,-1.09375 v 1.738282 q -0.820312,0.546875 -1.630859,0.78125 -0.800781,0.234375 -1.884766,0.234375 -1.484375,0 -2.402344,-0.615235 Q 11.353516,35.90625 10.796875,34.871094 10.25,33.826172 10.25,32.458984 q 0,-2.050781 1.162109,-3.330078 1.16211,-1.289062 3.017579,-1.289062 1.787109,0 2.851562,1.25 1.064453,1.25 1.064453,3.349609 z m -6.279297,-1.064453 h 4.521485 q -0.06836,-1.064453 -0.634766,-1.640625 -0.566406,-0.576172 -1.523437,-0.576172 -0.957032,0 -1.572266,0.576172 -0.605469,0.576172 -0.791016,1.640625 z"
           id="path53" />
      </g>
    </g>
  </g>
</svg>
