<?xml version="1.0" encoding="UTF-8" standalone="no"?>
<svg
   version="1.1"
   width="25"
   height="380"
   viewBox="0 0 25 380"
   enable-background="new 0 0 25 380"
   id="svg14"
   xmlns="http://www.w3.org/2000/svg"
   xmlns:svg="http://www.w3.org/2000/svg">
  <defs
     id="defs18" />
  <g
     id="g12">
    <path
       id="rect4"
       style="clip-rule:evenodd;fill:#1a5e9a;fill-rule:evenodd"
       d="M 0,0 H 25 V 380 H 0 Z" />
    <g
       transform="rotate(-90,19,37)"
       id="g10">
      <g
         aria-label="W3C Draft Registry"
         id="text8"
         style="fill:#ffffff">
        <path
           d="m -127.66992,23.357422 h 1.94336 l -5.51758,13.701172 h -0.41992 l -4.46289,-11.09375 -4.50196,11.09375 h -0.41992 l -5.49804,-13.701172 h 1.96289 l 3.75976,9.404297 3.7793,-9.404297 h 1.85547 l 3.79883,9.404297 z"
           id="path21" />
        <path
           d="m -122.08398,29.060547 h 0.11718 q 1.2793,0 1.94336,-0.527344 0.67383,-0.527344 0.67383,-1.533203 0,-0.908203 -0.6543,-1.474609 -0.64453,-0.566407 -1.69922,-0.566407 -1.06445,0 -2.36328,0.664063 v -1.865235 q 1.19141,-0.595703 2.59766,-0.595703 1.88477,0 2.96875,0.986328 1.09375,0.986329 1.09375,2.695313 0,1.035156 -0.41992,1.748047 -0.41992,0.703125 -1.33789,1.210937 0.80078,0.3125 1.17187,0.771485 0.3711,0.449218 0.57617,1.09375 0.20508,0.644531 0.20508,1.367187 0,1.78711 -1.1914,2.958985 -1.19141,1.162109 -3.00782,1.162109 -1.55273,0 -2.99804,-0.751953 v -2.128906 q 1.54297,0.966796 2.99804,0.966796 0.98633,0 1.58203,-0.585937 0.60547,-0.585938 0.60547,-1.552734 0,-0.810547 -0.49804,-1.416016 -0.29297,-0.341797 -0.6543,-0.498047 -0.35156,-0.166016 -1.5332,-0.3125 l -0.17578,-0.01953 z"
           id="path23" />
        <path
           d="m -102.42578,33.835937 v 2.148438 q -2.14844,1.171875 -4.96094,1.171875 -2.28516,0 -3.87695,-0.917969 -1.5918,-0.917969 -2.51953,-2.529297 -0.92774,-1.611328 -0.92774,-3.486328 0,-2.978515 2.11914,-5.009765 2.12891,-2.03125 5.24414,-2.03125 2.14844,0 4.77539,1.123046 v 2.09961 q -2.39257,-1.367188 -4.67773,-1.367188 -2.34375,0 -3.89648,1.484375 -1.54297,1.47461 -1.54297,3.701172 0,2.246094 1.52343,3.691406 1.52344,1.445313 3.89649,1.445313 2.48047,0 4.84375,-1.523438 z"
           id="path25" />
        <path
           d="M -94.4375,36.980469 V 23.357422 h 4.599609 q 2.783204,0 4.404297,0.839844 1.621094,0.830078 2.578125,2.451171 0.957032,1.621094 0.957032,3.535157 0,1.367187 -0.527344,2.617187 -0.527344,1.25 -1.503906,2.197266 -0.996094,0.976562 -2.314454,1.474609 -0.771484,0.302735 -1.416015,0.410156 -0.644531,0.09766 -2.460938,0.09766 z m 4.394531,-11.884766 h -2.441406 v 10.146484 h 2.5 q 1.464844,0 2.275391,-0.195312 0.810547,-0.205078 1.347656,-0.507813 0.546875,-0.3125 0.996094,-0.761718 1.445312,-1.464844 1.445312,-3.701172 0,-2.197266 -1.484375,-3.583985 -0.546875,-0.517578 -1.259765,-0.849609 -0.703125,-0.332031 -1.337891,-0.439453 -0.634766,-0.107422 -2.041016,-0.107422 z"
           id="path27" />
        <path
           d="m -77.796875,28.015625 v 2.060547 l 0.09766,-0.15625 q 1.289063,-2.080078 2.578125,-2.080078 1.00586,0 2.09961,1.015625 l -0.9375,1.5625 q -0.927735,-0.878907 -1.71875,-0.878907 -0.859375,0 -1.494141,0.820313 -0.625,0.820312 -0.625,1.943359 V 37 h -1.787109 v -8.984375 z"
           id="path29" />
        <path
           d="m -66.126953,31.599609 v 3.81836 q 0,0.458984 0.3125,0.458984 0.322266,0 1.005859,-0.478516 v 1.083985 q -0.605468,0.390625 -0.976562,0.527344 -0.361328,0.146484 -0.761719,0.146484 -1.142578,0 -1.347656,-0.898438 -1.132813,0.878907 -2.41211,0.878907 -0.9375,0 -1.5625,-0.615235 -0.625,-0.625 -0.625,-1.5625 0,-0.849609 0.605469,-1.513672 0.615235,-0.673828 1.738281,-1.064453 L -67.875,31.599609 V 31.121094 Q -67.875,29.5 -69.496094,29.5 q -1.455078,0 -2.832031,1.503906 v -1.943359 q 1.035156,-1.220703 2.978516,-1.220703 1.455078,0 2.333984,0.761718 0.292969,0.244141 0.527344,0.654297 0.234375,0.400391 0.292969,0.810547 0.06836,0.400391 0.06836,1.533203 z M -67.875,35.222656 v -2.666015 l -1.191406,0.458984 q -0.908203,0.361328 -1.289063,0.732422 -0.371093,0.361328 -0.371093,0.908203 0,0.556641 0.351562,0.908203 0.361328,0.351563 0.927734,0.351563 0.84961,0 1.572266,-0.69336 z"
           id="path31" />
        <path
           d="m -63.011719,28.015625 v -0.537109 q 0,-2.167969 0.917969,-3.232422 0.927734,-1.064453 2.216797,-1.064453 0.556641,0 1.318359,0.175781 v 1.738281 q -0.429687,-0.15625 -0.820312,-0.15625 -1.044922,0 -1.455078,0.556641 -0.400391,0.55664 -0.400391,1.982422 v 0.537109 h 1.601563 v 1.601562 h -1.601563 V 37 h -1.777344 v -7.382813 h -1.289062 v -1.601562 z"
           id="path33" />
        <path
           d="m -59.476562,29.441406 3.339843,-3.28125 v 1.855469 h 2.841797 v 1.601562 h -2.841797 v 4.404297 q 0,1.542969 1.279297,1.542969 0.957031,0 2.021485,-0.644531 v 1.660156 q -1.025391,0.576172 -2.236329,0.576172 -1.220703,0 -2.03125,-0.712891 -0.253906,-0.214843 -0.419921,-0.478515 -0.166016,-0.273438 -0.283204,-0.703125 -0.107421,-0.439453 -0.107421,-1.660157 v -3.984375 h -1.5625 z"
           id="path35" />
        <path
           d="M -45.6875,37 V 23.357422 h 3.417969 q 2.070312,0 3.28125,1.02539 1.220703,1.025391 1.220703,2.773438 0,1.191406 -0.595703,2.060547 -0.595703,0.86914 -1.708985,1.298828 0.654297,0.429687 1.279297,1.171875 0.625,0.742187 1.757813,2.587891 0.71289,1.162109 1.142578,1.748046 L -35.169922,37 h -2.324219 l -0.595703,-0.898438 q -0.0293,-0.04883 -0.117187,-0.166015 l -0.38086,-0.53711 -0.605468,-0.996093 -0.654297,-1.064453 Q -40.453125,32.498047 -40.960937,32 -41.458984,31.501953 -41.869141,31.287109 -42.269531,31.0625 -43.226562,31.0625 h -0.507813 V 37 Z m 2.539063,-11.982422 h -0.585938 v 4.306641 h 0.742188 q 1.484375,0 2.03125,-0.253907 0.55664,-0.253906 0.859375,-0.761718 0.3125,-0.517578 0.3125,-1.171875 0,-0.644532 -0.341797,-1.16211 -0.341797,-0.527343 -0.966797,-0.742187 -0.615235,-0.214844 -2.050781,-0.214844 z"
           id="path37" />
        <path
           d="m -26.263672,32.664062 h -6.318359 q 0.06836,1.289063 0.859375,2.050782 0.800781,0.761718 2.060547,0.761718 1.757812,0 3.242187,-1.09375 v 1.738282 q -0.820312,0.546875 -1.630859,0.78125 -0.800781,0.234375 -1.884766,0.234375 -1.484375,0 -2.402344,-0.615235 -0.917968,-0.615234 -1.474609,-1.65039 -0.546875,-1.044922 -0.546875,-2.41211 0,-2.050781 1.162109,-3.330078 1.16211,-1.289062 3.017579,-1.289062 1.787109,0 2.851562,1.25 1.064453,1.25 1.064453,3.349609 z m -6.279297,-1.064453 h 4.521485 q -0.06836,-1.064453 -0.634766,-1.640625 -0.566406,-0.576172 -1.523437,-0.576172 -0.957032,0 -1.572266,0.576172 -0.605469,0.576172 -0.791016,1.640625 z"
           id="path39" />
        <path
           d="m -24.808594,31.121094 q 0,-1.435547 1.044922,-2.265625 1.054688,-0.839844 2.871094,-0.839844 h 3.701172 v 1.386719 h -1.816406 q 0.527343,0.537109 0.732421,0.976562 0.205079,0.439453 0.205079,1.00586 0,0.703125 -0.400391,1.386718 -0.400391,0.673828 -1.035156,1.035157 -0.625,0.361328 -2.060547,0.576171 -1.00586,0.146485 -1.00586,0.69336 0,0.3125 0.371094,0.517578 0.38086,0.195312 1.367188,0.410156 1.65039,0.361328 2.11914,0.566406 0.478516,0.205079 0.859375,0.585938 0.644532,0.644531 0.644532,1.621094 0,1.279297 -1.142579,2.041015 -1.132812,0.761719 -3.037109,0.761719 -1.923828,0 -3.076172,-0.771484 -1.142578,-0.761719 -1.142578,-2.050782 0,-1.826171 2.255859,-2.353515 -0.898437,-0.576172 -0.898437,-1.142578 0,-0.429688 0.380859,-0.78125 0.390625,-0.351563 1.044922,-0.517578 -1.982422,-0.878907 -1.982422,-2.841797 z m 3.339844,-1.5625 q -0.722656,0 -1.230469,0.488281 -0.507812,0.488281 -0.507812,1.171875 0,0.693359 0.498047,1.152344 0.498047,0.449218 1.259765,0.449218 0.751953,0 1.25,-0.458984 0.507813,-0.46875 0.507813,-1.162109 0,-0.703125 -0.507813,-1.171875 -0.507812,-0.46875 -1.269531,-0.46875 z m -0.419922,7.861328 q -0.898437,0 -1.474609,0.380859 -0.566406,0.38086 -0.566406,0.976563 0,1.386718 2.5,1.386718 1.18164,0 1.826171,-0.351562 0.654297,-0.341797 0.654297,-0.976563 0,-0.625 -0.820312,-1.02539 -0.820313,-0.390625 -2.119141,-0.390625 z"
           id="path41" />
        <path
           d="m -14.876953,24.236328 q 0.439453,0 0.751953,0.302734 0.3125,0.302735 0.3125,0.742188 0,0.429687 -0.3125,0.742187 -0.3125,0.3125 -0.751953,0.3125 -0.410156,0 -0.722656,-0.3125 -0.3125,-0.322265 -0.3125,-0.742187 0,-0.410156 0.3125,-0.722656 0.3125,-0.322266 0.722656,-0.322266 z m -0.878906,3.779297 h 1.777343 V 37 h -1.777343 z"
           id="path43" />
        <path
           d="m -11.859375,36.355469 v -1.914063 q 0.751953,0.527344 1.533203,0.859375 0.7910157,0.322266 1.3281251,0.322266 0.5566406,0 0.9570313,-0.273438 0.4003906,-0.273437 0.4003906,-0.654297 0,-0.390625 -0.2636719,-0.644531 -0.2539062,-0.263672 -1.1132812,-0.751953 -1.7187499,-0.957031 -2.2558599,-1.630859 -0.527343,-0.683594 -0.527343,-1.484375 0,-1.035157 0.800781,-1.689453 0.810547,-0.654297 2.0800781,-0.654297 1.3183594,0 2.7050782,0.742187 v 1.757813 q -1.5820313,-0.957032 -2.5878907,-0.957032 -0.5175781,0 -0.8398437,0.22461 -0.3125,0.214844 -0.3125,0.576172 0,0.3125 0.2832031,0.595703 0.2929687,0.283203 1.015625,0.683594 l 0.6347656,0.361328 q 2.2460938,1.269531 2.2460938,2.8125 0,1.103515 -0.8691406,1.816406 -0.859375,0.703125 -2.2167969,0.703125 -0.8007813,0 -1.4257809,-0.166016 -0.625,-0.175781 -1.572266,-0.634765 z"
           id="path45" />
        <path
           d="m -4.984375,29.441406 3.3398438,-3.28125 v 1.855469 h 2.8417968 v 1.601562 h -2.8417968 v 4.404297 q 0,1.542969 1.27929682,1.542969 0.95703125,0 2.02148438,-0.644531 v 1.660156 q -1.02539063,0.576172 -2.23632812,0.576172 -1.22070308,0 -2.03124998,-0.712891 Q -2.8652344,36.228516 -3.03125,35.964844 -3.1972656,35.691406 -3.3144531,35.261719 -3.421875,34.822266 -3.421875,33.601562 v -3.984375 h -1.5625 z"
           id="path47" />
        <path
           d="m 4.859375,28.015625 v 2.060547 l 0.097656,-0.15625 q 1.2890625,-2.080078 2.578125,-2.080078 1.0058594,0 2.0996094,1.015625 l -0.9375,1.5625 q -0.9277344,-0.878907 -1.71875,-0.878907 -0.859375,0 -1.4941406,0.820313 -0.625,0.820312 -0.625,1.943359 V 37 H 3.0722656 v -8.984375 z"
           id="path49" />
        <path
           d="m 16.993164,28.015625 h 2.001953 l -6.357422,13.564453 h -1.982422 l 3.056641,-6.503906 -3.476562,-7.060547 h 2.021484 l 2.421875,5.068359 z"
           id="path51" />
      </g>
    </g>
  </g>
</svg>
