<?xml version="1.0" encoding="UTF-8" standalone="no"?>
<svg
   version="1.1"
   width="25"
   height="380"
   viewBox="0 0 25 380"
   enable-background="new 0 0 25 380"
   id="svg14"
   xmlns="http://www.w3.org/2000/svg"
   xmlns:svg="http://www.w3.org/2000/svg">
  <defs
     id="defs18" />
  <g
     id="g12">
    <path
       id="rect4"
       style="clip-rule:evenodd;fill:#ff0000;fill-rule:evenodd"
       d="M 0,0 H 25 V 380 H 0 Z" />
    <g
       transform="rotate(-90,19,37)"
       id="g10">
      <g
         aria-label="W3C Editor's Draft"
         id="text8"
         style="fill:#ffffff">
        <path
           d="m -123.09961,23.357422 h 1.94336 l -5.51758,13.701172 h -0.41992 l -4.46289,-11.09375 -4.50195,11.09375 h -0.41993 l -5.49804,-13.701172 h 1.96289 l 3.75976,9.404297 3.7793,-9.404297 h 1.85547 l 3.79883,9.404297 z"
           id="path21" />
        <path
           d="m -117.51367,29.060547 h 0.11719 q 1.27929,0 1.94335,-0.527344 0.67383,-0.527344 0.67383,-1.533203 0,-0.908203 -0.65429,-1.474609 -0.64454,-0.566407 -1.69922,-0.566407 -1.06446,0 -2.36328,0.664063 v -1.865235 q 1.1914,-0.595703 2.59765,-0.595703 1.88477,0 2.96875,0.986328 1.09375,0.986329 1.09375,2.695313 0,1.035156 -0.41992,1.748047 -0.41992,0.703125 -1.33789,1.210937 0.80078,0.3125 1.17187,0.771485 0.3711,0.449218 0.57618,1.09375 0.20507,0.644531 0.20507,1.367187 0,1.78711 -1.1914,2.958985 -1.19141,1.162109 -3.00781,1.162109 -1.55274,0 -2.99805,-0.751953 v -2.128906 q 1.54297,0.966796 2.99805,0.966796 0.98632,0 1.58203,-0.585937 0.60547,-0.585938 0.60547,-1.552734 0,-0.810547 -0.49805,-1.416016 -0.29297,-0.341797 -0.6543,-0.498047 -0.35156,-0.166016 -1.5332,-0.3125 l -0.17578,-0.01953 z"
           id="path23" />
        <path
           d="m -97.855469,33.835937 v 2.148438 q -2.148441,1.171875 -4.960941,1.171875 -2.28515,0 -3.87695,-0.917969 -1.5918,-0.917969 -2.51953,-2.529297 -0.92774,-1.611328 -0.92774,-3.486328 0,-2.978515 2.11915,-5.009765 2.1289,-2.03125 5.24414,-2.03125 2.14843,0 4.775387,1.123046 v 2.09961 q -2.392577,-1.367188 -4.677737,-1.367188 -2.34375,0 -3.89648,1.484375 -1.54297,1.47461 -1.54297,3.701172 0,2.246094 1.52344,3.691406 1.52343,1.445313 3.89648,1.445313 2.48047,0 4.843751,-1.523438 z"
           id="path25" />
        <path
           d="m -89.886719,23.357422 h 7.734375 v 1.738281 h -5.78125 v 4.160156 h 5.585938 v 1.748047 h -5.585938 v 4.238281 h 5.966797 v 1.738282 h -7.919922 z"
           id="path27" />
        <path
           d="m -74.134766,23.357422 h 1.78711 V 37 h -3.798828 q -1.992188,0 -3.183594,-1.259766 -1.181641,-1.259765 -1.181641,-3.378906 0,-1.982422 1.240235,-3.261719 1.25,-1.279297 3.183593,-1.279297 0.898438,0 1.953125,0.38086 z m 0,12.11914 v -5.693359 q -0.830078,-0.419922 -1.679687,-0.419922 -1.328125,0 -2.119141,0.869141 -0.78125,0.86914 -0.78125,2.34375 0,1.386719 0.683594,2.138672 0.410156,0.449218 0.869141,0.605468 0.458984,0.15625 1.65039,0.15625 z"
           id="path29" />
        <path
           d="m -69.017578,24.236328 q 0.439453,0 0.751953,0.302734 0.3125,0.302735 0.3125,0.742188 0,0.429687 -0.3125,0.742187 -0.3125,0.3125 -0.751953,0.3125 -0.410156,0 -0.722656,-0.3125 -0.3125,-0.322265 -0.3125,-0.742187 0,-0.410156 0.3125,-0.722656 0.3125,-0.322266 0.722656,-0.322266 z m -0.878906,3.779297 h 1.777343 V 37 h -1.777343 z"
           id="path31" />
        <path
           d="m -66.820312,29.441406 3.339843,-3.28125 v 1.855469 h 2.841797 v 1.601562 h -2.841797 v 4.404297 q 0,1.542969 1.279297,1.542969 0.957031,0 2.021485,-0.644531 v 1.660156 q -1.025391,0.576172 -2.236329,0.576172 -1.220703,0 -2.03125,-0.712891 -0.253906,-0.214843 -0.419921,-0.478515 -0.166016,-0.273438 -0.283204,-0.703125 -0.107421,-0.439453 -0.107421,-1.660157 v -3.984375 h -1.5625 z"
           id="path33" />
        <path
           d="m -54.583984,27.996094 q 2.050781,0 3.408203,1.328125 1.357422,1.318359 1.357422,3.320312 0,1.94336 -1.376953,3.232422 -1.376954,1.279297 -3.466797,1.279297 -2.021485,0 -3.378907,-1.298828 -1.357421,-1.308594 -1.357421,-3.261719 0,-1.972656 1.367187,-3.28125 1.376953,-1.318359 3.447266,-1.318359 z m -0.09766,1.601562 q -1.279296,0 -2.099609,0.839844 -0.820312,0.839844 -0.820312,2.138672 0,1.289062 0.839843,2.109375 0.839844,0.810547 2.158203,0.810547 1.308594,0 2.138672,-0.820313 0.839844,-0.830078 0.839844,-2.11914 0,-1.279297 -0.869141,-2.119141 -0.86914,-0.839844 -2.1875,-0.839844 z"
           id="path35" />
        <path
           d="m -45.921875,28.015625 v 2.060547 l 0.09766,-0.15625 q 1.289063,-2.080078 2.578125,-2.080078 1.00586,0 2.09961,1.015625 l -0.9375,1.5625 q -0.927735,-0.878907 -1.71875,-0.878907 -0.859375,0 -1.494141,0.820313 -0.625,0.820312 -0.625,1.943359 V 37 h -1.787109 v -8.984375 z"
           id="path37" />
        <path
           d="m -38.734375,27.761719 h -1.103516 l -0.439453,-2.685547 v -2.392578 h 2.001953 v 2.392578 z"
           id="path39" />
        <path
           d="m -36.585937,36.355469 v -1.914063 q 0.751953,0.527344 1.533203,0.859375 0.791015,0.322266 1.328125,0.322266 0.55664,0 0.957031,-0.273438 0.400391,-0.273437 0.400391,-0.654297 0,-0.390625 -0.263672,-0.644531 -0.253907,-0.263672 -1.113282,-0.751953 -1.71875,-0.957031 -2.255859,-1.630859 -0.527344,-0.683594 -0.527344,-1.484375 0,-1.035157 0.800782,-1.689453 0.810546,-0.654297 2.080078,-0.654297 1.318359,0 2.705078,0.742187 v 1.757813 q -1.582031,-0.957032 -2.587891,-0.957032 -0.517578,0 -0.839844,0.22461 -0.3125,0.214844 -0.3125,0.576172 0,0.3125 0.283204,0.595703 0.292968,0.283203 1.015625,0.683594 l 0.634765,0.361328 q 2.246094,1.269531 2.246094,2.8125 0,1.103515 -0.869141,1.816406 -0.859375,0.703125 -2.216797,0.703125 -0.800781,0 -1.425781,-0.166016 -0.625,-0.175781 -1.572265,-0.634765 z"
           id="path41" />
        <path
           d="M -22.640625,36.980469 V 23.357422 h 4.599609 q 2.783203,0 4.404297,0.839844 1.621094,0.830078 2.578125,2.451171 0.957031,1.621094 0.957031,3.535157 0,1.367187 -0.527343,2.617187 -0.527344,1.25 -1.503907,2.197266 -0.996093,0.976562 -2.314453,1.474609 -0.771484,0.302735 -1.416015,0.410156 -0.644531,0.09766 -2.460938,0.09766 z m 4.394531,-11.884766 H -20.6875 v 10.146484 h 2.5 q 1.464844,0 2.275391,-0.195312 0.810546,-0.205078 1.347656,-0.507813 0.546875,-0.3125 0.996094,-0.761718 1.445312,-1.464844 1.445312,-3.701172 0,-2.197266 -1.484375,-3.583985 -0.546875,-0.517578 -1.259766,-0.849609 -0.703125,-0.332031 -1.33789,-0.439453 -0.634766,-0.107422 -2.041016,-0.107422 z"
           id="path43" />
        <path
           d="m -6,28.015625 v 2.060547 l 0.097656,-0.15625 q 1.2890625,-2.080078 2.5781249,-2.080078 1.0058594,0 2.0996094,1.015625 l -0.9375,1.5625 q -0.9277344,-0.878907 -1.71875,-0.878907 -0.859375,0 -1.4941406,0.820313 Q -6,31.179687 -6,32.302734 V 37 h -1.7871094 v -8.984375 z"
           id="path45" />
        <path
           d="m 5.6699219,31.599609 v 3.81836 q 0,0.458984 0.3125,0.458984 0.3222656,0 1.0058593,-0.478516 v 1.083985 Q 6.3828125,36.873047 6.0117187,37.009766 5.6503906,37.15625 5.25,37.15625 q -1.1425781,0 -1.3476562,-0.898438 -1.1328125,0.878907 -2.4121094,0.878907 -0.93750003,0 -1.56250002,-0.615235 -0.625,-0.625 -0.625,-1.5625 0,-0.849609 0.60546875,-1.513672 Q 0.5234375,32.771484 1.6464844,32.380859 L 3.921875,31.599609 V 31.121094 Q 3.921875,29.5 2.3007813,29.5 0.84570313,29.5 -0.53125,31.003906 v -1.943359 q 1.03515625,-1.220703 2.9785156,-1.220703 1.4550782,0 2.3339844,0.761718 0.2929687,0.244141 0.5273437,0.654297 0.234375,0.400391 0.2929688,0.810547 0.068359,0.400391 0.068359,1.533203 z M 3.921875,35.222656 v -2.666015 l -1.1914062,0.458984 q -0.9082032,0.361328 -1.2890626,0.732422 -0.3710937,0.361328 -0.3710937,0.908203 0,0.556641 0.3515625,0.908203 0.3613281,0.351563 0.9277344,0.351563 0.8496094,0 1.5722656,-0.69336 z"
           id="path47" />
        <path
           d="m 8.7851563,28.015625 v -0.537109 q 0,-2.167969 0.9179687,-3.232422 0.927734,-1.064453 2.216797,-1.064453 0.556641,0 1.318359,0.175781 v 1.738281 q -0.429687,-0.15625 -0.820312,-0.15625 -1.044922,0 -1.455078,0.556641 -0.400391,0.55664 -0.400391,1.982422 v 0.537109 h 1.601563 v 1.601562 H 10.5625 V 37 H 8.7851563 V 29.617187 H 7.4960937 v -1.601562 z"
           id="path49" />
        <path
           d="m 12.320313,29.441406 3.339843,-3.28125 v 1.855469 h 2.841797 v 1.601562 h -2.841797 v 4.404297 q 0,1.542969 1.279297,1.542969 0.957031,0 2.021484,-0.644531 v 1.660156 q -1.02539,0.576172 -2.236328,0.576172 -1.220703,0 -2.03125,-0.712891 -0.253906,-0.214843 -0.419921,-0.478515 -0.166016,-0.273438 -0.283204,-0.703125 -0.107421,-0.439453 -0.107421,-1.660157 v -3.984375 h -1.5625 z"
           id="path51" />
      </g>
    </g>
  </g>
</svg>
