<?xml version="1.0" encoding="UTF-8" standalone="no"?>
<svg
   version="1.1"
   width="25"
   height="380"
   viewBox="0 0 25 380"
   enable-background="new 0 0 25 380"
   id="svg14"
   xmlns="http://www.w3.org/2000/svg"
   xmlns:svg="http://www.w3.org/2000/svg">
  <defs
     id="defs18" />
  <g
     id="g12">
    <path
       id="rect4"
       style="clip-rule:evenodd;fill:#1a5e9a;fill-rule:evenodd"
       d="M 0,0 H 25 V 380 H 0 Z" />
    <g
       transform="rotate(-90,19,37)"
       id="g10">
      <g
         aria-label="W3C Group Note"
         id="text8"
         style="fill:#ffffff">
        <path
           d="m -114.50586,23.357422 h 1.94336 l -5.51758,13.701172 H -118.5 l -4.46289,-11.09375 -4.50195,11.09375 h -0.41993 l -5.49804,-13.701172 h 1.96289 l 3.75976,9.404297 3.7793,-9.404297 h 1.85547 l 3.79883,9.404297 z"
           id="path21" />
        <path
           d="m -108.91992,29.060547 h 0.11719 q 1.27929,0 1.94335,-0.527344 0.67383,-0.527344 0.67383,-1.533203 0,-0.908203 -0.65429,-1.474609 -0.64454,-0.566407 -1.69922,-0.566407 -1.06446,0 -2.36328,0.664063 v -1.865235 q 1.1914,-0.595703 2.59765,-0.595703 1.88477,0 2.96875,0.986328 1.09375,0.986329 1.09375,2.695313 0,1.035156 -0.41992,1.748047 -0.41992,0.703125 -1.33789,1.210937 0.80078,0.3125 1.17187,0.771485 0.3711,0.449218 0.57618,1.09375 0.20507,0.644531 0.20507,1.367187 0,1.78711 -1.1914,2.958985 -1.19141,1.162109 -3.00781,1.162109 -1.55274,0 -2.99805,-0.751953 v -2.128906 q 1.54297,0.966796 2.99805,0.966796 0.98632,0 1.58203,-0.585937 0.60547,-0.585938 0.60547,-1.552734 0,-0.810547 -0.49805,-1.416016 -0.29297,-0.341797 -0.6543,-0.498047 -0.35156,-0.166016 -1.5332,-0.3125 l -0.17578,-0.01953 z"
           id="path23" />
        <path
           d="m -89.261719,33.835937 v 2.148438 q -2.148437,1.171875 -4.960937,1.171875 -2.285156,0 -3.876953,-0.917969 -1.591797,-0.917969 -2.519531,-2.529297 -0.92774,-1.611328 -0.92774,-3.486328 0,-2.978515 2.119146,-5.009765 2.128906,-2.03125 5.24414,-2.03125 2.148438,0 4.775391,1.123046 v 2.09961 q -2.392578,-1.367188 -4.677734,-1.367188 -2.34375,0 -3.896485,1.484375 -1.542969,1.47461 -1.542969,3.701172 0,2.246094 1.523438,3.691406 1.523437,1.445313 3.896484,1.445313 2.480469,0 4.84375,-1.523438 z"
           id="path25" />
        <path
           d="m -73.919922,30.28125 h 4.580078 v 5.78125 q -2.519531,1.09375 -5,1.09375 -3.388672,0 -5.419922,-1.972656 -2.021484,-1.982422 -2.021484,-4.882813 0,-3.05664 2.099609,-5.08789 2.09961,-2.03125 5.263672,-2.03125 1.152344,0 2.1875,0.253906 1.035157,0.24414 2.617188,0.908203 v 1.992187 q -2.441406,-1.416015 -4.84375,-1.416015 -2.236328,0 -3.769531,1.523437 -1.533204,1.523438 -1.533204,3.740235 0,2.324218 1.533204,3.798828 1.533203,1.474609 3.945312,1.474609 1.171875,0 2.802734,-0.537109 l 0.185547,-0.05859 v -2.841797 h -2.626953 z"
           id="path27" />
        <path
           d="m -64.828125,28.015625 v 2.060547 l 0.09766,-0.15625 q 1.289063,-2.080078 2.578125,-2.080078 1.00586,0 2.09961,1.015625 l -0.9375,1.5625 q -0.927735,-0.878907 -1.71875,-0.878907 -0.859375,0 -1.494141,0.820313 -0.625,0.820312 -0.625,1.943359 V 37 h -1.787109 v -8.984375 z"
           id="path29" />
        <path
           d="m -54.989258,27.996094 q 2.050781,0 3.408203,1.328125 1.357422,1.318359 1.357422,3.320312 0,1.94336 -1.376953,3.232422 -1.376953,1.279297 -3.466797,1.279297 -2.021484,0 -3.378906,-1.298828 -1.357422,-1.308594 -1.357422,-3.261719 0,-1.972656 1.367188,-3.28125 1.376953,-1.318359 3.447265,-1.318359 z m -0.09766,1.601562 q -1.279297,0 -2.099609,0.839844 -0.820313,0.839844 -0.820313,2.138672 0,1.289062 0.839844,2.109375 0.839844,0.810547 2.158203,0.810547 1.308594,0 2.138672,-0.820313 0.839844,-0.830078 0.839844,-2.11914 0,-1.279297 -0.869141,-2.119141 -0.869141,-0.839844 -2.1875,-0.839844 z"
           id="path31" />
        <path
           d="m -42.494141,37 v -1.142578 q -0.566406,0.615234 -1.298828,0.957031 -0.722656,0.341797 -1.445312,0.341797 -0.84961,0 -1.572266,-0.419922 -0.71289,-0.429687 -1.083984,-1.152344 -0.361328,-0.732422 -0.361328,-2.421875 v -5.146484 h 1.777343 v 5.126953 q 0,1.416016 0.400391,1.982422 0.410156,0.556641 1.425781,0.556641 1.269532,0 2.158203,-1.240235 v -6.425781 h 1.777344 V 37 Z"
           id="path33" />
        <path
           d="M -38.333984,41.580078 V 28.015625 h 3.115234 q 2.392578,0 3.720703,1.191406 1.337891,1.191406 1.337891,3.330078 0,2.021485 -1.259766,3.320313 -1.25,1.298828 -3.193359,1.298828 -0.859375,0 -1.904297,-0.380859 v 4.804687 z m 3.076172,-11.904297 h -1.259766 v 5.527344 q 0.820312,0.419922 1.71875,0.419922 1.25,0 2.041016,-0.869141 0.800781,-0.86914 0.800781,-2.236328 0,-0.878906 -0.38086,-1.552734 -0.371093,-0.673828 -1.02539,-0.976563 -0.644531,-0.3125 -1.894531,-0.3125 z"
           id="path35" />
        <path
           d="m -11.585938,23.357422 h 1.8554692 V 37 H -11.410156 L -20.53125,26.501953 V 37 h -1.835937 V 23.357422 h 1.582031 l 9.199218,10.585937 z"
           id="path37" />
        <path
           d="m -2.7480469,27.996094 q 2.05078128,0 3.40820315,1.328125 1.35742185,1.318359 1.35742185,3.320312 0,1.94336 -1.3769531,3.232422 -1.37695312,1.279297 -3.4667969,1.279297 -2.0214843,0 -3.3789062,-1.298828 Q -7.5625,34.548828 -7.5625,32.595703 q 0,-1.972656 1.3671875,-3.28125 1.3769531,-1.318359 3.4472656,-1.318359 z m -0.097656,1.601562 q -1.2792969,0 -2.0996094,0.839844 -0.8203125,0.839844 -0.8203125,2.138672 0,1.289062 0.8398438,2.109375 0.8398437,0.810547 2.1582031,0.810547 1.3085937,0 2.13867185,-0.820313 0.83984375,-0.830078 0.83984375,-2.11914 0,-1.279297 -0.86914062,-2.119141 -0.86914058,-0.839844 -2.18749998,-0.839844 z"
           id="path39" />
        <path
           d="m 2.75,29.441406 3.3398437,-3.28125 v 1.855469 h 2.8417969 v 1.601562 H 6.0898437 v 4.404297 q 0,1.542969 1.2792969,1.542969 0.9570313,0 2.0214844,-0.644531 v 1.660156 q -1.0253906,0.576172 -2.2363281,0.576172 -1.2207032,0 -2.03125,-0.712891 Q 4.8691406,36.228516 4.703125,35.964844 4.5371094,35.691406 4.4199219,35.261719 4.3125,34.822266 4.3125,33.601562 V 29.617187 H 2.75 Z"
           id="path41" />
        <path
           d="m 18.345703,32.664062 h -6.318359 q 0.06836,1.289063 0.859375,2.050782 0.800781,0.761718 2.060547,0.761718 1.757812,0 3.242187,-1.09375 v 1.738282 q -0.820312,0.546875 -1.630859,0.78125 -0.800781,0.234375 -1.884766,0.234375 -1.484375,0 -2.402344,-0.615235 Q 11.353516,35.90625 10.796875,34.871094 10.25,33.826172 10.25,32.458984 q 0,-2.050781 1.162109,-3.330078 1.16211,-1.289062 3.017579,-1.289062 1.787109,0 2.851562,1.25 1.064453,1.25 1.064453,3.349609 z m -6.279297,-1.064453 h 4.521485 q -0.06836,-1.064453 -0.634766,-1.640625 -0.566406,-0.576172 -1.523437,-0.576172 -0.957032,0 -1.572266,0.576172 -0.605469,0.576172 -0.791016,1.640625 z"
           id="path43" />
      </g>
    </g>
  </g>
</svg>
