<?xml version="1.0" encoding="UTF-8" standalone="no"?>
<svg
   version="1.1"
   viewBox="0 0 25 380"
   enable-background="new 0 0 25 380"
   id="svg14"
   xmlns="http://www.w3.org/2000/svg"
   xmlns:svg="http://www.w3.org/2000/svg">
  <defs
     id="defs18" />
  <g
     id="g12">
    <path
       id="rect4"
       style="clip-rule:evenodd;fill:#1a5e9a;fill-rule:evenodd"
       d="M 0,0 H 25 V 380 H 0 Z" />
    <g
       transform="rotate(-90,19,37)"
       id="g10">
      <g
         aria-label="W3C Proposed Recommendation"
         id="text8"
         style="fill:#ffffff">
        <path
           d="m -238.2168,23.357422 h 1.94336 l -5.51758,13.701172 h -0.41992 l -4.46289,-11.09375 -4.50195,11.09375 h -0.41992 l -5.49805,-13.701172 h 1.96289 l 3.75977,9.404297 3.77929,-9.404297 h 1.85547 l 3.79883,9.404297 z"
           id="path21" />
        <path
           d="m -232.63086,29.060547 h 0.11719 q 1.2793,0 1.94336,-0.527344 0.67383,-0.527344 0.67383,-1.533203 0,-0.908203 -0.6543,-1.474609 -0.64453,-0.566407 -1.69922,-0.566407 -1.06445,0 -2.36328,0.664063 v -1.865235 q 1.19141,-0.595703 2.59766,-0.595703 1.88476,0 2.96875,0.986328 1.09375,0.986329 1.09375,2.695313 0,1.035156 -0.41993,1.748047 -0.41992,0.703125 -1.33789,1.210937 0.80078,0.3125 1.17188,0.771485 0.37109,0.449218 0.57617,1.09375 0.20508,0.644531 0.20508,1.367187 0,1.78711 -1.19141,2.958985 -1.1914,1.162109 -3.00781,1.162109 -1.55274,0 -2.99805,-0.751953 v -2.128906 q 1.54297,0.966796 2.99805,0.966796 0.98633,0 1.58203,-0.585937 0.60547,-0.585938 0.60547,-1.552734 0,-0.810547 -0.49805,-1.416016 -0.29297,-0.341797 -0.65429,-0.498047 -0.35157,-0.166016 -1.53321,-0.3125 l -0.17578,-0.01953 z"
           id="path23" />
        <path
           d="m -212.97266,33.835937 v 2.148438 q -2.14843,1.171875 -4.96093,1.171875 -2.28516,0 -3.87696,-0.917969 -1.59179,-0.917969 -2.51953,-2.529297 -0.92773,-1.611328 -0.92773,-3.486328 0,-2.978515 2.11914,-5.009765 2.1289,-2.03125 5.24414,-2.03125 2.14844,0 4.77539,1.123046 v 2.09961 q -2.39258,-1.367188 -4.67773,-1.367188 -2.34375,0 -3.89649,1.484375 -1.54297,1.47461 -1.54297,3.701172 0,2.246094 1.52344,3.691406 1.52344,1.445313 3.89648,1.445313 2.48047,0 4.84375,-1.523438 z"
           id="path25" />
        <path
           d="M -205.11133,37 V 23.337891 h 4.32617 q 1.95313,0 3.11524,1.054687 1.16211,1.054688 1.16211,2.832031 0,1.191407 -0.59571,2.109375 -0.5957,0.917969 -1.63085,1.337891 -1.03516,0.410156 -2.96875,0.410156 h -1.44532 V 37 Z m 3.98438,-11.923828 h -2.02149 v 4.267578 h 2.13867 q 1.19141,0 1.83594,-0.556641 0.64453,-0.566406 0.64453,-1.611328 0,-2.099609 -2.59765,-2.099609 z"
           id="path27" />
        <path
           d="m -193.14844,28.015625 v 2.060547 l 0.0977,-0.15625 q 1.28906,-2.080078 2.57812,-2.080078 1.00586,0 2.09961,1.015625 l -0.9375,1.5625 q -0.92773,-0.878907 -1.71875,-0.878907 -0.85937,0 -1.49414,0.820313 -0.625,0.820312 -0.625,1.943359 V 37 h -1.78711 v -8.984375 z"
           id="path29" />
        <path
           d="m -183.30957,27.996094 q 2.05078,0 3.4082,1.328125 1.35742,1.318359 1.35742,3.320312 0,1.94336 -1.37695,3.232422 -1.37695,1.279297 -3.4668,1.279297 -2.02148,0 -3.3789,-1.298828 -1.35742,-1.308594 -1.35742,-3.261719 0,-1.972656 1.36718,-3.28125 1.37696,-1.318359 3.44727,-1.318359 z m -0.0977,1.601562 q -1.27929,0 -2.09961,0.839844 -0.82031,0.839844 -0.82031,2.138672 0,1.289062 0.83985,2.109375 0.83984,0.810547 2.1582,0.810547 1.30859,0 2.13867,-0.820313 0.83984,-0.830078 0.83984,-2.11914 0,-1.279297 -0.86914,-2.119141 -0.86914,-0.839844 -2.1875,-0.839844 z"
           id="path31" />
        <path
           d="M -176.6543,41.580078 V 28.015625 h 3.11524 q 2.39258,0 3.7207,1.191406 1.33789,1.191406 1.33789,3.330078 0,2.021485 -1.25976,3.320313 -1.25,1.298828 -3.19336,1.298828 -0.85938,0 -1.9043,-0.380859 v 4.804687 z m 3.07618,-11.904297 h -1.25977 v 5.527344 q 0.82031,0.419922 1.71875,0.419922 1.25,0 2.04102,-0.869141 0.80078,-0.86914 0.80078,-2.236328 0,-0.878906 -0.38086,-1.552734 -0.3711,-0.673828 -1.02539,-0.976563 -0.64453,-0.3125 -1.89453,-0.3125 z"
           id="path33" />
        <path
           d="m -162.24023,27.996094 q 2.05078,0 3.4082,1.328125 1.35742,1.318359 1.35742,3.320312 0,1.94336 -1.37695,3.232422 -1.37696,1.279297 -3.4668,1.279297 -2.02148,0 -3.37891,-1.298828 -1.35742,-1.308594 -1.35742,-3.261719 0,-1.972656 1.36719,-3.28125 1.37695,-1.318359 3.44727,-1.318359 z m -0.0977,1.601562 q -1.2793,0 -2.09961,0.839844 -0.82031,0.839844 -0.82031,2.138672 0,1.289062 0.83984,2.109375 0.83985,0.810547 2.1582,0.810547 1.3086,0 2.13868,-0.820313 0.83984,-0.830078 0.83984,-2.11914 0,-1.279297 -0.86914,-2.119141 -0.86914,-0.839844 -2.1875,-0.839844 z"
           id="path35" />
        <path
           d="m -155.92187,36.355469 v -1.914063 q 0.75195,0.527344 1.5332,0.859375 0.79101,0.322266 1.32812,0.322266 0.55664,0 0.95703,-0.273438 0.4004,-0.273437 0.4004,-0.654297 0,-0.390625 -0.26368,-0.644531 -0.2539,-0.263672 -1.11328,-0.751953 -1.71875,-0.957031 -2.25586,-1.630859 -0.52734,-0.683594 -0.52734,-1.484375 0,-1.035157 0.80078,-1.689453 0.81055,-0.654297 2.08008,-0.654297 1.31836,0 2.70508,0.742187 v 1.757813 q -1.58203,-0.957032 -2.58789,-0.957032 -0.51758,0 -0.83985,0.22461 -0.3125,0.214844 -0.3125,0.576172 0,0.3125 0.28321,0.595703 0.29296,0.283203 1.01562,0.683594 l 0.63477,0.361328 q 2.24609,1.269531 2.24609,2.8125 0,1.103515 -0.86914,1.816406 -0.85938,0.703125 -2.2168,0.703125 -0.80078,0 -1.42578,-0.166016 -0.625,-0.175781 -1.57226,-0.634765 z"
           id="path37" />
        <path
           d="m -140.13086,32.664062 h -6.31836 q 0.0684,1.289063 0.85938,2.050782 0.80078,0.761718 2.06054,0.761718 1.75782,0 3.24219,-1.09375 v 1.738282 q -0.82031,0.546875 -1.63086,0.78125 -0.80078,0.234375 -1.88476,0.234375 -1.48438,0 -2.40235,-0.615235 -0.91797,-0.615234 -1.47461,-1.65039 -0.54687,-1.044922 -0.54687,-2.41211 0,-2.050781 1.16211,-3.330078 1.16211,-1.289062 3.01758,-1.289062 1.7871,0 2.85156,1.25 1.06445,1.25 1.06445,3.349609 z m -6.2793,-1.064453 h 4.52149 q -0.0684,-1.064453 -0.63477,-1.640625 -0.5664,-0.576172 -1.52343,-0.576172 -0.95704,0 -1.57227,0.576172 -0.60547,0.576172 -0.79102,1.640625 z"
           id="path39" />
        <path
           d="m -132.2207,23.357422 h 1.78711 V 37 h -3.79883 q -1.99219,0 -3.1836,-1.259766 -1.18164,-1.259765 -1.18164,-3.378906 0,-1.982422 1.24024,-3.261719 1.25,-1.279297 3.18359,-1.279297 0.89844,0 1.95313,0.38086 z m 0,12.11914 v -5.693359 q -0.83008,-0.419922 -1.67969,-0.419922 -1.32813,0 -2.11914,0.869141 -0.78125,0.86914 -0.78125,2.34375 0,1.386719 0.68359,2.138672 0.41016,0.449218 0.86914,0.605468 0.45899,0.15625 1.65039,0.15625 z"
           id="path41" />
        <path
           d="M -122.17188,37 V 23.357422 h 3.41797 q 2.07032,0 3.28125,1.02539 1.22071,1.025391 1.22071,2.773438 0,1.191406 -0.59571,2.060547 -0.5957,0.86914 -1.70898,1.298828 0.6543,0.429687 1.2793,1.171875 0.625,0.742187 1.75781,2.587891 0.71289,1.162109 1.14258,1.748046 L -111.6543,37 h -2.32422 l -0.5957,-0.898438 q -0.0293,-0.04883 -0.11719,-0.166015 l -0.38086,-0.53711 -0.60546,-0.996093 -0.6543,-1.064453 Q -116.9375,32.498047 -117.44531,32 q -0.49805,-0.498047 -0.90821,-0.712891 -0.40039,-0.224609 -1.35742,-0.224609 h -0.50781 V 37 Z m 2.53907,-11.982422 h -0.58594 v 4.306641 h 0.74219 q 1.48437,0 2.03125,-0.253907 0.55664,-0.253906 0.85937,-0.761718 0.3125,-0.517578 0.3125,-1.171875 0,-0.644532 -0.34179,-1.16211 -0.3418,-0.527343 -0.9668,-0.742187 -0.61524,-0.214844 -2.05078,-0.214844 z"
           id="path43" />
        <path
           d="m -102.74805,32.664062 h -6.31836 q 0.0684,1.289063 0.85938,2.050782 0.80078,0.761718 2.06055,0.761718 1.75781,0 3.24218,-1.09375 v 1.738282 q -0.82031,0.546875 -1.63086,0.78125 -0.80078,0.234375 -1.88476,0.234375 -1.48438,0 -2.40235,-0.615235 -0.91796,-0.615234 -1.47461,-1.65039 -0.54687,-1.044922 -0.54687,-2.41211 0,-2.050781 1.16211,-3.330078 1.16211,-1.289062 3.01758,-1.289062 1.78711,0 2.85156,1.25 1.06445,1.25 1.06445,3.349609 z m -6.27929,-1.064453 h 4.52148 q -0.0684,-1.064453 -0.63477,-1.640625 -0.5664,-0.576172 -1.52343,-0.576172 -0.95703,0 -1.57227,0.576172 -0.60547,0.576172 -0.79101,1.640625 z"
           id="path45" />
        <path
           d="m -94.095703,34.900391 v 1.757812 q -1.337891,0.498047 -2.617188,0.498047 -2.109375,0 -3.369139,-1.25 -1.25,-1.25 -1.25,-3.349609 0,-2.119141 1.2207,-3.417969 1.220705,-1.298828 3.212893,-1.298828 0.693359,0 1.240234,0.136718 0.556641,0.126954 1.367187,0.488282 v 1.894531 Q -95.638672,29.5 -96.791016,29.5 q -1.201171,0 -1.972656,0.849609 -0.771484,0.839844 -0.771484,2.148438 0,1.376953 0.830078,2.1875 0.839844,0.810547 2.255859,0.810547 1.025391,0 2.353516,-0.595703 z"
           id="path47" />
        <path
           d="m -87.787109,27.996094 q 2.050781,0 3.408203,1.328125 1.357422,1.318359 1.357422,3.320312 0,1.94336 -1.376953,3.232422 -1.376954,1.279297 -3.466797,1.279297 -2.021485,0 -3.378907,-1.298828 -1.357421,-1.308594 -1.357421,-3.261719 0,-1.972656 1.367187,-3.28125 1.376953,-1.318359 3.447266,-1.318359 z m -0.09766,1.601562 q -1.279296,0 -2.099609,0.839844 -0.820312,0.839844 -0.820312,2.138672 0,1.289062 0.839843,2.109375 0.839844,0.810547 2.158203,0.810547 1.308594,0 2.138672,-0.820313 0.839844,-0.830078 0.839844,-2.11914 0,-1.279297 -0.869141,-2.119141 -0.86914,-0.839844 -2.1875,-0.839844 z"
           id="path49" />
        <path
           d="M -73.666016,30.476562 V 37 h -1.787109 v -5 q 0,-1.494141 -0.400391,-2.080078 -0.40039,-0.595703 -1.396484,-0.595703 -0.556641,0 -1.025391,0.253906 -0.458984,0.253906 -1.054687,0.898437 V 37 h -1.777344 v -8.984375 h 1.777344 v 1.181641 q 1.357422,-1.357422 2.65625,-1.357422 1.708984,0 2.646484,1.621093 1.425782,-1.640625 2.978516,-1.640625 1.308594,0 2.148437,0.957032 0.84961,0.957031 0.84961,2.919922 V 37 h -1.777344 v -5.322266 q 0,-1.123047 -0.458984,-1.71875 -0.458985,-0.595703 -1.31836,-0.595703 -1.103515,0 -2.060547,1.113281 z"
           id="path51" />
        <path
           d="M -58.236328,30.476562 V 37 h -1.787109 v -5 q 0,-1.494141 -0.400391,-2.080078 -0.400391,-0.595703 -1.396484,-0.595703 -0.556641,0 -1.025391,0.253906 -0.458984,0.253906 -1.054688,0.898437 V 37 h -1.777343 v -8.984375 h 1.777343 v 1.181641 q 1.357422,-1.357422 2.65625,-1.357422 1.708985,0 2.646485,1.621093 1.425781,-1.640625 2.978515,-1.640625 1.308594,0 2.148438,0.957032 0.849609,0.957031 0.849609,2.919922 V 37 h -1.777343 v -5.322266 q 0,-1.123047 -0.458985,-1.71875 -0.458984,-0.595703 -1.318359,-0.595703 -1.103516,0 -2.060547,1.113281 z"
           id="path53" />
        <path
           d="m -42.513672,32.664062 h -6.318359 q 0.06836,1.289063 0.859375,2.050782 0.800781,0.761718 2.060547,0.761718 1.757812,0 3.242187,-1.09375 v 1.738282 q -0.820312,0.546875 -1.630859,0.78125 -0.800781,0.234375 -1.884766,0.234375 -1.484375,0 -2.402344,-0.615235 -0.917968,-0.615234 -1.474609,-1.65039 -0.546875,-1.044922 -0.546875,-2.41211 0,-2.050781 1.162109,-3.330078 1.16211,-1.289062 3.017579,-1.289062 1.787109,0 2.851562,1.25 1.064453,1.25 1.064453,3.349609 z m -6.279297,-1.064453 h 4.521485 q -0.06836,-1.064453 -0.634766,-1.640625 -0.566406,-0.576172 -1.523437,-0.576172 -0.957032,0 -1.572266,0.576172 -0.605469,0.576172 -0.791016,1.640625 z"
           id="path55" />
        <path
           d="m -38.822266,28.015625 v 1.142578 q 1.191407,-1.318359 2.705079,-1.318359 0.839843,0 1.5625,0.439453 0.722656,0.429687 1.09375,1.191406 0.380859,0.751953 0.380859,2.392578 V 37 h -1.777344 v -5.117188 q 0,-1.376953 -0.419922,-1.96289 -0.419922,-0.595703 -1.40625,-0.595703 -1.259765,0 -2.138672,1.259765 V 37 h -1.816406 v -8.984375 z"
           id="path57" />
        <path
           d="m -24.603516,23.357422 h 1.78711 V 37 h -3.798828 q -1.992188,0 -3.183594,-1.259766 -1.181641,-1.259765 -1.181641,-3.378906 0,-1.982422 1.240235,-3.261719 1.25,-1.279297 3.183593,-1.279297 0.898438,0 1.953125,0.38086 z m 0,12.11914 v -5.693359 q -0.830078,-0.419922 -1.679687,-0.419922 -1.328125,0 -2.119141,0.869141 -0.78125,0.86914 -0.78125,2.34375 0,1.386719 0.683594,2.138672 0.410156,0.449218 0.869141,0.605468 0.458984,0.15625 1.65039,0.15625 z"
           id="path59" />
        <path
           d="m -14.759766,31.599609 v 3.81836 q 0,0.458984 0.3125,0.458984 0.322266,0 1.00586,-0.478516 v 1.083985 q -0.605469,0.390625 -0.976563,0.527344 -0.361328,0.146484 -0.761719,0.146484 -1.142578,0 -1.347656,-0.898438 -1.132812,0.878907 -2.412109,0.878907 -0.9375,0 -1.5625,-0.615235 -0.625,-0.625 -0.625,-1.5625 0,-0.849609 0.605469,-1.513672 0.615234,-0.673828 1.738281,-1.064453 l 2.275391,-0.78125 v -0.478515 q 0,-1.621094 -1.621094,-1.621094 -1.455078,0 -2.832031,1.503906 v -1.943359 q 1.035156,-1.220703 2.978515,-1.220703 1.455078,0 2.333984,0.761718 0.292969,0.244141 0.527344,0.654297 0.234375,0.400391 0.292969,0.810547 0.06836,0.400391 0.06836,1.533203 z m -1.748046,3.623047 v -2.666015 l -1.191407,0.458984 q -0.908203,0.361328 -1.289062,0.732422 -0.371094,0.361328 -0.371094,0.908203 0,0.556641 0.351563,0.908203 0.361328,0.351563 0.927734,0.351563 0.849609,0 1.572266,-0.69336 z"
           id="path61" />
        <path
           d="m -13.109375,29.441406 3.3398437,-3.28125 v 1.855469 h 2.8417969 v 1.601562 h -2.8417969 v 4.404297 q 0,1.542969 1.2792969,1.542969 0.9570313,0 2.0214844,-0.644531 v 1.660156 q -1.0253906,0.576172 -2.2363281,0.576172 -1.2207032,0 -2.0312499,-0.712891 -0.253906,-0.214843 -0.419922,-0.478515 -0.166016,-0.273438 -0.283203,-0.703125 -0.107422,-0.439453 -0.107422,-1.660157 v -3.984375 h -1.5625 z"
           id="path63" />
        <path
           d="m -4.2519531,24.236328 q 0.4394531,0 0.7519531,0.302734 0.3125,0.302735 0.3125,0.742188 0,0.429687 -0.3125,0.742187 -0.3125,0.3125 -0.7519531,0.3125 -0.4101563,0 -0.7226563,-0.3125 -0.3125,-0.322265 -0.3125,-0.742187 0,-0.410156 0.3125,-0.722656 0.3125,-0.322266 0.7226563,-0.322266 z m -0.8789063,3.779297 h 1.7773438 V 37 h -1.7773438 z"
           id="path65" />
        <path
           d="m 3.5019531,27.996094 q 2.0507813,0 3.4082031,1.328125 1.3574219,1.318359 1.3574219,3.320312 0,1.94336 -1.3769531,3.232422 -1.3769531,1.279297 -3.4667969,1.279297 -2.0214844,0 -3.37890623,-1.298828 Q -1.3125,34.548828 -1.3125,32.595703 q 0,-1.972656 1.3671875,-3.28125 1.3769531,-1.318359 3.4472656,-1.318359 z m -0.097656,1.601562 q -1.2792969,0 -2.0996094,0.839844 -0.8203125,0.839844 -0.8203125,2.138672 0,1.289062 0.8398437,2.109375 0.8398438,0.810547 2.1582032,0.810547 1.3085937,0 2.1386718,-0.820313 0.8398438,-0.830078 0.8398438,-2.11914 0,-1.279297 -0.8691406,-2.119141 -0.8691407,-0.839844 -2.1875,-0.839844 z"
           id="path67" />
        <path
           d="m 12.037109,28.015625 v 1.142578 q 1.191407,-1.318359 2.705079,-1.318359 0.839843,0 1.562499,0.439453 0.722657,0.429687 1.09375,1.191406 0.38086,0.751953 0.38086,2.392578 V 37 h -1.777344 v -5.117188 q 0,-1.376953 -0.419922,-1.96289 -0.419922,-0.595703 -1.40625,-0.595703 -1.259765,0 -2.138672,1.259765 V 37 h -1.816406 v -8.984375 z"
           id="path69" />
      </g>
    </g>
  </g>
</svg>
