<?xml version="1.0" encoding="UTF-8" standalone="no"?>
<svg
   version="1.1"
   width="25"
   height="380"
   viewBox="0 0 25 380"
   enable-background="new 0 0 25 380"
   id="svg14"
   xmlns="http://www.w3.org/2000/svg"
   xmlns:svg="http://www.w3.org/2000/svg">
  <defs
     id="defs18" />
  <g
     id="g12">
    <path
       id="rect4"
       style="clip-rule:evenodd;fill:#1a5e9a;fill-rule:evenodd"
       d="M 0,0 H 25 V 380 H 0 Z" />
    <g
       transform="rotate(-90,19,37)"
       id="g10">
      <g
         aria-label="W3C Registry"
         id="text8"
         style="fill:#ffffff">
        <path
           d="m -78.958984,23.357422 h 1.943359 l -5.517578,13.701172 h -0.419922 l -4.462891,-11.09375 -4.501953,11.09375 h -0.419922 l -5.498046,-13.701172 h 1.96289 l 3.759766,9.404297 3.779297,-9.404297 h 1.855468 l 3.798829,9.404297 z"
           id="path21" />
        <path
           d="m -73.373047,29.060547 h 0.117188 q 1.279297,0 1.943359,-0.527344 0.673828,-0.527344 0.673828,-1.533203 0,-0.908203 -0.654297,-1.474609 -0.644531,-0.566407 -1.699218,-0.566407 -1.064454,0 -2.363282,0.664063 v -1.865235 q 1.191407,-0.595703 2.597657,-0.595703 1.884765,0 2.96875,0.986328 1.09375,0.986329 1.09375,2.695313 0,1.035156 -0.419922,1.748047 -0.419922,0.703125 -1.337891,1.210937 0.800781,0.3125 1.171875,0.771485 0.371094,0.449218 0.576172,1.09375 Q -68.5,32.3125 -68.5,33.035156 q 0,1.78711 -1.191406,2.958985 -1.191406,1.162109 -3.007813,1.162109 -1.552734,0 -2.998047,-0.751953 v -2.128906 q 1.542969,0.966796 2.998047,0.966796 0.986328,0 1.582032,-0.585937 0.605468,-0.585938 0.605468,-1.552734 0,-0.810547 -0.498047,-1.416016 -0.292968,-0.341797 -0.654296,-0.498047 -0.351563,-0.166016 -1.533204,-0.3125 l -0.175781,-0.01953 z"
           id="path23" />
        <path
           d="m -53.714844,33.835937 v 2.148438 q -2.148437,1.171875 -4.960937,1.171875 -2.285156,0 -3.876953,-0.917969 -1.591797,-0.917969 -2.519532,-2.529297 Q -66,32.097656 -66,30.222656 q 0,-2.978515 2.119141,-5.009765 2.128906,-2.03125 5.24414,-2.03125 2.148438,0 4.775391,1.123046 v 2.09961 q -2.392578,-1.367188 -4.677734,-1.367188 -2.34375,0 -3.896485,1.484375 -1.542969,1.47461 -1.542969,3.701172 0,2.246094 1.523438,3.691406 1.523437,1.445313 3.896484,1.445313 2.480469,0 4.84375,-1.523438 z"
           id="path25" />
        <path
           d="M -45.6875,37 V 23.357422 h 3.417969 q 2.070312,0 3.28125,1.02539 1.220703,1.025391 1.220703,2.773438 0,1.191406 -0.595703,2.060547 -0.595703,0.86914 -1.708985,1.298828 0.654297,0.429687 1.279297,1.171875 0.625,0.742187 1.757813,2.587891 0.71289,1.162109 1.142578,1.748046 L -35.169922,37 h -2.324219 l -0.595703,-0.898438 q -0.0293,-0.04883 -0.117187,-0.166015 l -0.38086,-0.53711 -0.605468,-0.996093 -0.654297,-1.064453 Q -40.453125,32.498047 -40.960937,32 -41.458984,31.501953 -41.869141,31.287109 -42.269531,31.0625 -43.226562,31.0625 h -0.507813 V 37 Z m 2.539063,-11.982422 h -0.585938 v 4.306641 h 0.742188 q 1.484375,0 2.03125,-0.253907 0.55664,-0.253906 0.859375,-0.761718 0.3125,-0.517578 0.3125,-1.171875 0,-0.644532 -0.341797,-1.16211 -0.341797,-0.527343 -0.966797,-0.742187 -0.615235,-0.214844 -2.050781,-0.214844 z"
           id="path27" />
        <path
           d="m -26.263672,32.664062 h -6.318359 q 0.06836,1.289063 0.859375,2.050782 0.800781,0.761718 2.060547,0.761718 1.757812,0 3.242187,-1.09375 v 1.738282 q -0.820312,0.546875 -1.630859,0.78125 -0.800781,0.234375 -1.884766,0.234375 -1.484375,0 -2.402344,-0.615235 -0.917968,-0.615234 -1.474609,-1.65039 -0.546875,-1.044922 -0.546875,-2.41211 0,-2.050781 1.162109,-3.330078 1.16211,-1.289062 3.017579,-1.289062 1.787109,0 2.851562,1.25 1.064453,1.25 1.064453,3.349609 z m -6.279297,-1.064453 h 4.521485 q -0.06836,-1.064453 -0.634766,-1.640625 -0.566406,-0.576172 -1.523437,-0.576172 -0.957032,0 -1.572266,0.576172 -0.605469,0.576172 -0.791016,1.640625 z"
           id="path29" />
        <path
           d="m -24.808594,31.121094 q 0,-1.435547 1.044922,-2.265625 1.054688,-0.839844 2.871094,-0.839844 h 3.701172 v 1.386719 h -1.816406 q 0.527343,0.537109 0.732421,0.976562 0.205079,0.439453 0.205079,1.00586 0,0.703125 -0.400391,1.386718 -0.400391,0.673828 -1.035156,1.035157 -0.625,0.361328 -2.060547,0.576171 -1.00586,0.146485 -1.00586,0.69336 0,0.3125 0.371094,0.517578 0.38086,0.195312 1.367188,0.410156 1.65039,0.361328 2.11914,0.566406 0.478516,0.205079 0.859375,0.585938 0.644532,0.644531 0.644532,1.621094 0,1.279297 -1.142579,2.041015 -1.132812,0.761719 -3.037109,0.761719 -1.923828,0 -3.076172,-0.771484 -1.142578,-0.761719 -1.142578,-2.050782 0,-1.826171 2.255859,-2.353515 -0.898437,-0.576172 -0.898437,-1.142578 0,-0.429688 0.380859,-0.78125 0.390625,-0.351563 1.044922,-0.517578 -1.982422,-0.878907 -1.982422,-2.841797 z m 3.339844,-1.5625 q -0.722656,0 -1.230469,0.488281 -0.507812,0.488281 -0.507812,1.171875 0,0.693359 0.498047,1.152344 0.498047,0.449218 1.259765,0.449218 0.751953,0 1.25,-0.458984 0.507813,-0.46875 0.507813,-1.162109 0,-0.703125 -0.507813,-1.171875 -0.507812,-0.46875 -1.269531,-0.46875 z m -0.419922,7.861328 q -0.898437,0 -1.474609,0.380859 -0.566406,0.38086 -0.566406,0.976563 0,1.386718 2.5,1.386718 1.18164,0 1.826171,-0.351562 0.654297,-0.341797 0.654297,-0.976563 0,-0.625 -0.820312,-1.02539 -0.820313,-0.390625 -2.119141,-0.390625 z"
           id="path31" />
        <path
           d="m -14.876953,24.236328 q 0.439453,0 0.751953,0.302734 0.3125,0.302735 0.3125,0.742188 0,0.429687 -0.3125,0.742187 -0.3125,0.3125 -0.751953,0.3125 -0.410156,0 -0.722656,-0.3125 -0.3125,-0.322265 -0.3125,-0.742187 0,-0.410156 0.3125,-0.722656 0.3125,-0.322266 0.722656,-0.322266 z m -0.878906,3.779297 h 1.777343 V 37 h -1.777343 z"
           id="path33" />
        <path
           d="m -11.859375,36.355469 v -1.914063 q 0.751953,0.527344 1.533203,0.859375 0.7910157,0.322266 1.3281251,0.322266 0.5566406,0 0.9570313,-0.273438 0.4003906,-0.273437 0.4003906,-0.654297 0,-0.390625 -0.2636719,-0.644531 -0.2539062,-0.263672 -1.1132812,-0.751953 -1.7187499,-0.957031 -2.2558599,-1.630859 -0.527343,-0.683594 -0.527343,-1.484375 0,-1.035157 0.800781,-1.689453 0.810547,-0.654297 2.0800781,-0.654297 1.3183594,0 2.7050782,0.742187 v 1.757813 q -1.5820313,-0.957032 -2.5878907,-0.957032 -0.5175781,0 -0.8398437,0.22461 -0.3125,0.214844 -0.3125,0.576172 0,0.3125 0.2832031,0.595703 0.2929687,0.283203 1.015625,0.683594 l 0.6347656,0.361328 q 2.2460938,1.269531 2.2460938,2.8125 0,1.103515 -0.8691406,1.816406 -0.859375,0.703125 -2.2167969,0.703125 -0.8007813,0 -1.4257809,-0.166016 -0.625,-0.175781 -1.572266,-0.634765 z"
           id="path35" />
        <path
           d="m -4.984375,29.441406 3.3398438,-3.28125 v 1.855469 h 2.8417968 v 1.601562 h -2.8417968 v 4.404297 q 0,1.542969 1.27929682,1.542969 0.95703125,0 2.02148438,-0.644531 v 1.660156 q -1.02539063,0.576172 -2.23632812,0.576172 -1.22070308,0 -2.03124998,-0.712891 Q -2.8652344,36.228516 -3.03125,35.964844 -3.1972656,35.691406 -3.3144531,35.261719 -3.421875,34.822266 -3.421875,33.601562 v -3.984375 h -1.5625 z"
           id="path37" />
        <path
           d="m 4.859375,28.015625 v 2.060547 l 0.097656,-0.15625 q 1.2890625,-2.080078 2.578125,-2.080078 1.0058594,0 2.0996094,1.015625 l -0.9375,1.5625 q -0.9277344,-0.878907 -1.71875,-0.878907 -0.859375,0 -1.4941406,0.820313 -0.625,0.820312 -0.625,1.943359 V 37 H 3.0722656 v -8.984375 z"
           id="path39" />
        <path
           d="m 16.993164,28.015625 h 2.001953 l -6.357422,13.564453 h -1.982422 l 3.056641,-6.503906 -3.476562,-7.060547 h 2.021484 l 2.421875,5.068359 z"
           id="path41" />
      </g>
    </g>
  </g>
</svg>
