<svg id="Layer_1" data-name="Layer 1" xmlns="http://www.w3.org/2000/svg" viewBox="0 0 25 380"><defs><style>.cls-1{fill:#fff;}</style></defs><title>SPSD</title><g id="Foreground"><rect width="25" height="380"/></g><path class="cls-1" d="M4.94,312.33v-2l13.82,5.57v.43l-11.19,4.5,11.19,4.55v.42L4.94,331.38v-2l9.49-3.79-9.49-3.82v-1.86l9.49-3.84Z" transform="translate(0 0)"/><path class="cls-1" d="M10.69,306.72v-.12a3.12,3.12,0,0,0-.53-2A1.85,1.85,0,0,0,8.61,304a1.88,1.88,0,0,0-1.49.66,2.52,2.52,0,0,0-.57,1.72,5.31,5.31,0,0,0,.67,2.38H5.34a5.77,5.77,0,0,1-.6-2.62,4.31,4.31,0,0,1,1-3A3.48,3.48,0,0,1,8.45,302a3.39,3.39,0,0,1,1.76.42,3.46,3.46,0,0,1,1.23,1.35,2.81,2.81,0,0,1,.77-1.18,3.33,3.33,0,0,1,1.11-.58,4.54,4.54,0,0,1,1.38-.21,4,4,0,0,1,3,1.2,4.16,4.16,0,0,1,1.18,3,6.47,6.47,0,0,1-.76,3H16a5.69,5.69,0,0,0,1-3,2.2,2.2,0,0,0-.59-1.6,2.09,2.09,0,0,0-1.57-.61,2.18,2.18,0,0,0-1.43.5,1.9,1.9,0,0,0-.51.66,6.62,6.62,0,0,0-.31,1.55l0,.18Z" transform="translate(0 0)"/><path class="cls-1" d="M15.51,286.88h2.17a10.28,10.28,0,0,1,1.18,5,7.72,7.72,0,0,1-.93,3.91,6.82,6.82,0,0,1-2.55,2.54,6.93,6.93,0,0,1-3.52.94,6.72,6.72,0,0,1-5.05-2.14,7.36,7.36,0,0,1-2-5.29A12.4,12.4,0,0,1,5.89,287H8a9.49,9.49,0,0,0-1.38,4.72,5.46,5.46,0,0,0,1.49,3.93,5,5,0,0,0,3.74,1.56,4.91,4.91,0,0,0,3.72-1.54A5.49,5.49,0,0,0,17,291.77,8.92,8.92,0,0,0,15.51,286.88Z" transform="translate(0 0)"/><path class="cls-1" d="M12.94,275.44l-.91,1.5a6.8,6.8,0,0,1-1.69,2,3.21,3.21,0,0,1-1.92.6,3.38,3.38,0,0,1-2.64-1.13,4.22,4.22,0,0,1-1-2.93,5.55,5.55,0,0,1,1-3.16H8a4.56,4.56,0,0,0-1.43,3.2A2.65,2.65,0,0,0,7,277.11a1.35,1.35,0,0,0,1.14.62,1.76,1.76,0,0,0,1.16-.46,5.75,5.75,0,0,0,1.13-1.47l.89-1.5a4.41,4.41,0,0,1,3.83-2.52,3.51,3.51,0,0,1,2.69,1.11,4.06,4.06,0,0,1,1,2.88,6.05,6.05,0,0,1-1.25,3.71H15.1a4.64,4.64,0,0,0,2-3.7,2.32,2.32,0,0,0-.52-1.54,1.62,1.62,0,0,0-1.29-.62Q14.06,273.63,12.94,275.44Z" transform="translate(0 0)"/><path class="cls-1" d="M18.7,264.08H17.54a4.18,4.18,0,0,1,1,1.31,3.4,3.4,0,0,1,.35,1.46,3.06,3.06,0,0,1-.43,1.58,2.79,2.79,0,0,1-1.16,1.09,5.81,5.81,0,0,1-2.44.37H9.64V268.1H14.8a3.56,3.56,0,0,0,2-.41,1.65,1.65,0,0,0,.57-1.43,2.62,2.62,0,0,0-1.25-2.18H9.64v-1.79H18.7Z" transform="translate(0 0)"/><path class="cls-1" d="M23.32,259.89H9.64v-3.14a5.44,5.44,0,0,1,1.2-3.75,4.28,4.28,0,0,1,3.36-1.34,4.63,4.63,0,0,1,3.35,1.26,4.28,4.28,0,0,1,1.31,3.22,5.65,5.65,0,0,1-.38,1.92h4.85Zm-12-3.1v1.27h5.58a3.74,3.74,0,0,0,.42-1.73,2.66,2.66,0,0,0-.88-2.06,3.21,3.21,0,0,0-2.26-.8,3.17,3.17,0,0,0-1.57.38,2.29,2.29,0,0,0-1,1A4.61,4.61,0,0,0,11.31,256.78Z" transform="translate(0 0)"/><path class="cls-1" d="M14.33,242v6.38a3,3,0,0,0,2.07-.87,2.87,2.87,0,0,0,.77-2.07,5.4,5.4,0,0,0-1.1-3.27h1.75a6,6,0,0,1,.79,1.64,6.84,6.84,0,0,1,.24,1.91,4.28,4.28,0,0,1-.62,2.42,4.51,4.51,0,0,1-1.67,1.48,5.09,5.09,0,0,1-2.43.56,4.82,4.82,0,0,1-3.36-1.17,3.92,3.92,0,0,1-1.3-3A3.59,3.59,0,0,1,10.72,243,5,5,0,0,1,14.1,242Zm-1.07,6.34v-4.56a2.51,2.51,0,0,0-1.66.64A2.06,2.06,0,0,0,11,245.9a2.21,2.21,0,0,0,.58,1.58A2.88,2.88,0,0,0,13.25,248.29Z" transform="translate(0 0)"/><path class="cls-1" d="M9.64,238.09h2.08l-.16-.1q-2.1-1.3-2.1-2.6a3.21,3.21,0,0,1,1-2.12l1.58.95a2.66,2.66,0,0,0-.89,1.73,1.86,1.86,0,0,0,.83,1.5,3.12,3.12,0,0,0,2,.64H18.7v1.8H9.64Z" transform="translate(0 0)"/><path class="cls-1" d="M18.05,232.46H16.12a8.12,8.12,0,0,0,.86-1.55,3.6,3.6,0,0,0,.33-1.33,1.67,1.67,0,0,0-.28-1,.79.79,0,0,0-.66-.4.89.89,0,0,0-.66.26A6.16,6.16,0,0,0,15,229.6a8,8,0,0,1-1.65,2.27,2.37,2.37,0,0,1-1.49.54,2.1,2.1,0,0,1-1.7-.81,3.22,3.22,0,0,1-.66-2.09,5.77,5.77,0,0,1,.75-2.73H12a5.46,5.46,0,0,0-1,2.61,1.45,1.45,0,0,0,.22.84.68.68,0,0,0,.59.32.85.85,0,0,0,.6-.29,5,5,0,0,0,.69-1l.36-.64q1.28-2.27,2.84-2.27a2.25,2.25,0,0,1,1.83.87,3.42,3.42,0,0,1,.71,2.24,5.49,5.49,0,0,1-.17,1.44A9.69,9.69,0,0,1,18.05,232.46Z" transform="translate(0 0)"/><path class="cls-1" d="M14.33,216.53v6.38A3,3,0,0,0,16.4,222a2.87,2.87,0,0,0,.77-2.07,5.4,5.4,0,0,0-1.1-3.27h1.75a6,6,0,0,1,.79,1.64,6.84,6.84,0,0,1,.24,1.91,4.28,4.28,0,0,1-.62,2.42,4.51,4.51,0,0,1-1.67,1.48,5.09,5.09,0,0,1-2.43.56,4.82,4.82,0,0,1-3.36-1.17,3.92,3.92,0,0,1-1.3-3,3.59,3.59,0,0,1,1.26-2.88,5,5,0,0,1,3.38-1.07Zm-1.07,6.34v-4.56a2.51,2.51,0,0,0-1.66.64,2.06,2.06,0,0,0-.58,1.54,2.21,2.21,0,0,0,.58,1.58A2.88,2.88,0,0,0,13.25,222.87Z" transform="translate(0 0)"/><path class="cls-1" d="M4.94,208.54v-1.8H18.7v3.83a4.2,4.2,0,0,1-1.27,3.21A4.77,4.77,0,0,1,14,215a4.53,4.53,0,0,1-3.29-1.26,4.28,4.28,0,0,1-1.29-3.21,5.83,5.83,0,0,1,.38-2Zm12.23,0H11.42a3.72,3.72,0,0,0-.42,1.69,2.73,2.73,0,0,0,.88,2.13,3.39,3.39,0,0,0,2.37.79,3.09,3.09,0,0,0,2.16-.69,2.13,2.13,0,0,0,.61-.88,5.94,5.94,0,0,0,.16-1.67Z" transform="translate(0 0)"/><path class="cls-1" d="M14.33,196.58V203a3,3,0,0,0,2.07-.87,2.87,2.87,0,0,0,.77-2.07,5.4,5.4,0,0,0-1.1-3.27h1.75a6,6,0,0,1,.79,1.64,6.84,6.84,0,0,1,.24,1.91,4.28,4.28,0,0,1-.62,2.42,4.51,4.51,0,0,1-1.67,1.48,5.09,5.09,0,0,1-2.43.56,4.82,4.82,0,0,1-3.36-1.17,3.92,3.92,0,0,1-1.3-3,3.59,3.59,0,0,1,1.26-2.88,5,5,0,0,1,3.38-1.07Zm-1.07,6.34v-4.56a2.51,2.51,0,0,0-1.66.64,2.06,2.06,0,0,0-.58,1.54,2.21,2.21,0,0,0,.58,1.58A2.88,2.88,0,0,0,13.25,202.92Z" transform="translate(0 0)"/><path class="cls-1" d="M4.94,188.59v-1.8H18.7v3.83a4.2,4.2,0,0,1-1.27,3.21A4.77,4.77,0,0,1,14,195a4.53,4.53,0,0,1-3.29-1.26,4.28,4.28,0,0,1-1.29-3.21,5.83,5.83,0,0,1,.38-2Zm12.23,0H11.42a3.72,3.72,0,0,0-.42,1.69,2.73,2.73,0,0,0,.88,2.13,3.39,3.39,0,0,0,2.37.79,3.09,3.09,0,0,0,2.16-.69,2.13,2.13,0,0,0,.61-.88,5.94,5.94,0,0,0,.16-1.67Z" transform="translate(0 0)"/><path class="cls-1" d="M18.7,178.44H4.94V175a5,5,0,0,1,1-3.32,3.47,3.47,0,0,1,2.8-1.23,3.44,3.44,0,0,1,3.39,2.33,6.1,6.1,0,0,1,1.18-1.29A23.82,23.82,0,0,1,16,169.71q1.17-.72,1.76-1.15l1-.73v2.35l-.91.6-.17.12-.54.38-1,.61-1.08.66a10.75,10.75,0,0,0-1.35,1.12,4.25,4.25,0,0,0-.72.92,3.09,3.09,0,0,0-.22,1.38v.51h6ZM6.61,175.88v.59H11v-.75a5.56,5.56,0,0,0-.26-2.05,1.92,1.92,0,0,0-.77-.87,2.24,2.24,0,0,0-1.18-.31,2.1,2.1,0,0,0-1.18.34,1.84,1.84,0,0,0-.74,1A7,7,0,0,0,6.61,175.88Z" transform="translate(0 0)"/><path class="cls-1" d="M14.33,158.83v6.38a3,3,0,0,0,2.07-.87,2.87,2.87,0,0,0,.77-2.07,5.4,5.4,0,0,0-1.1-3.27h1.75a6,6,0,0,1,.79,1.64,6.84,6.84,0,0,1,.24,1.91,4.28,4.28,0,0,1-.62,2.42,4.51,4.51,0,0,1-1.67,1.48,5.09,5.09,0,0,1-2.43.56,4.82,4.82,0,0,1-3.36-1.17,3.92,3.92,0,0,1-1.3-3,3.59,3.59,0,0,1,1.26-2.88,5,5,0,0,1,3.38-1.07Zm-1.07,6.34v-4.56a2.51,2.51,0,0,0-1.66.64,2.06,2.06,0,0,0-.58,1.54,2.21,2.21,0,0,0,.58,1.58A2.88,2.88,0,0,0,13.25,165.17Z" transform="translate(0 0)"/><path class="cls-1" d="M16.58,150.1h1.77a7.54,7.54,0,0,1,.5,2.64,4.6,4.6,0,0,1-1.26,3.39,4.56,4.56,0,0,1-3.38,1.27,4.83,4.83,0,0,1-3.45-1.23,4.24,4.24,0,0,1-1.31-3.24,5.41,5.41,0,0,1,.13-1.26,8.16,8.16,0,0,1,.5-1.37H12a4.77,4.77,0,0,0-.87,2.52,2.58,2.58,0,0,0,.85,2,3.1,3.1,0,0,0,2.17.78,2.93,2.93,0,0,0,2.21-.84,3.12,3.12,0,0,0,.82-2.27A5.93,5.93,0,0,0,16.58,150.1Z" transform="translate(0 0)"/><path class="cls-1" d="M9.62,143.72A4.73,4.73,0,0,1,11,140.28a4.49,4.49,0,0,1,3.35-1.37,4.27,4.27,0,0,1,3.26,1.39,4.93,4.93,0,0,1,1.29,3.5,4.73,4.73,0,0,1-1.32,3.41,4.36,4.36,0,0,1-3.29,1.37,4.4,4.4,0,0,1-3.32-1.38A4.82,4.82,0,0,1,9.62,143.72Zm1.62.1a2.83,2.83,0,0,0,.85,2.12,3,3,0,0,0,2.16.83,2.83,2.83,0,0,0,2.12-.85,3,3,0,0,0,.82-2.18,3,3,0,0,0-.83-2.16,2.87,2.87,0,0,0-2.13-.84,2.85,2.85,0,0,0-2.14.88A3,3,0,0,0,11.23,143.82Z" transform="translate(0 0)"/><path class="cls-1" d="M12.12,129.49H18.7v1.8h-5a4,4,0,0,0-2.1.4,1.58,1.58,0,0,0-.6,1.41,2.11,2.11,0,0,0,.26,1,4.52,4.52,0,0,0,.91,1.07H18.7V137H9.64v-1.79h1.19a3.9,3.9,0,0,1-1.37-2.68,3,3,0,0,1,1.64-2.67,4,4,0,0,1-1.66-3,2.77,2.77,0,0,1,1-2.17,4.36,4.36,0,0,1,2.95-.85H18.7v1.79H13.33a2.8,2.8,0,0,0-1.73.46,1.58,1.58,0,0,0-.6,1.33A2.75,2.75,0,0,0,12.12,129.49Z" transform="translate(0 0)"/><path class="cls-1" d="M12.12,113.94H18.7v1.8h-5a4,4,0,0,0-2.1.4,1.58,1.58,0,0,0-.6,1.41,2.11,2.11,0,0,0,.26,1,4.52,4.52,0,0,0,.91,1.07H18.7v1.79H9.64v-1.79h1.19A3.9,3.9,0,0,1,9.46,117a3,3,0,0,1,1.64-2.67,4,4,0,0,1-1.66-3,2.77,2.77,0,0,1,1-2.17,4.36,4.36,0,0,1,2.95-.85H18.7v1.79H13.33a2.8,2.8,0,0,0-1.73.46,1.58,1.58,0,0,0-.6,1.33A2.75,2.75,0,0,0,12.12,113.94Z" transform="translate(0 0)"/><path class="cls-1" d="M14.33,98.08v6.37a3,3,0,0,0,2.07-.87,2.87,2.87,0,0,0,.77-2.07,5.4,5.4,0,0,0-1.1-3.27h1.75a6,6,0,0,1,.79,1.64,6.84,6.84,0,0,1,.24,1.91,4.28,4.28,0,0,1-.62,2.42,4.51,4.51,0,0,1-1.67,1.48,5.09,5.09,0,0,1-2.43.56,4.82,4.82,0,0,1-3.36-1.17,3.92,3.92,0,0,1-1.3-3,3.59,3.59,0,0,1,1.26-2.88,5,5,0,0,1,3.38-1.07Zm-1.07,6.34V99.85a2.51,2.51,0,0,0-1.66.64A2.06,2.06,0,0,0,11,102a2.21,2.21,0,0,0,.58,1.58A2.88,2.88,0,0,0,13.25,104.42Z" transform="translate(0 0)"/><path class="cls-1" d="M9.64,94.35h1.15a3.6,3.6,0,0,1-1.33-2.73A3,3,0,0,1,9.9,90a2.86,2.86,0,0,1,1.2-1.11,5.75,5.75,0,0,1,2.42-.38H18.7v1.79H13.54a3.53,3.53,0,0,0-2,.42,1.62,1.62,0,0,0-.6,1.42,2.58,2.58,0,0,0,1.27,2.16H18.7v1.83H9.64Z" transform="translate(0 0)"/><path class="cls-1" d="M4.94,80V78.2H18.7V82a4.2,4.2,0,0,1-1.27,3.21A4.77,4.77,0,0,1,14,86.44a4.53,4.53,0,0,1-3.29-1.26A4.28,4.28,0,0,1,9.44,82a5.83,5.83,0,0,1,.38-2Zm12.23,0H11.42A3.72,3.72,0,0,0,11,81.7a2.73,2.73,0,0,0,.88,2.13,3.39,3.39,0,0,0,2.37.79,3.09,3.09,0,0,0,2.16-.69,2.13,2.13,0,0,0,.61-.88,5.94,5.94,0,0,0,.16-1.67Z" transform="translate(0 0)"/><path class="cls-1" d="M13.25,70.07h3.85q.46,0,.46-.32a2.17,2.17,0,0,0-.48-1h1.09a5.8,5.8,0,0,1,.54,1,2.11,2.11,0,0,1,.14.77q0,1.15-.91,1.36a3.9,3.9,0,0,1,.89,2.43,2.15,2.15,0,0,1-.62,1.58,2.12,2.12,0,0,1-1.57.63,2.21,2.21,0,0,1-1.53-.62A4.17,4.17,0,0,1,14,74.13l-.79-2.3h-.48a1.45,1.45,0,0,0-1.64,1.64,3.94,3.94,0,0,0,1.52,2.86h-2a3.72,3.72,0,0,1-1.23-3A3.47,3.47,0,0,1,10.23,71a2.43,2.43,0,0,1,.66-.53,2.38,2.38,0,0,1,.82-.3A12.28,12.28,0,0,1,13.25,70.07Zm3.66,1.76H14.22l.46,1.2a4,4,0,0,0,.73,1.29,1.33,1.33,0,0,0,1.84,0,1.27,1.27,0,0,0,.35-.93A2.26,2.26,0,0,0,16.91,71.83Z" transform="translate(0 0)"/><path class="cls-1" d="M11.08,68.42,7.77,65.05H9.64V62.19h1.62v2.87h4.44q1.55,0,1.55-1.29a4,4,0,0,0-.64-2h1.67A4.53,4.53,0,0,1,18.86,64a3,3,0,0,1-.72,2,2,2,0,0,1-.49.42,2.58,2.58,0,0,1-.71.28,8,8,0,0,1-1.67.11h-4v1.58Z" transform="translate(0 0)"/><path class="cls-1" d="M5.82,59.51a1.05,1.05,0,0,1,.31-.76,1,1,0,0,1,.75-.32,1,1,0,0,1,.75.32,1,1,0,0,1,.32.76,1,1,0,0,1-.32.73,1,1,0,0,1-.74.32,1,1,0,0,1-.73-.32A1,1,0,0,1,5.82,59.51Zm3.81.89V58.6H18.7v1.79Z" transform="translate(0 0)"/><path class="cls-1" d="M9.62,51.67A4.73,4.73,0,0,1,11,48.24a4.49,4.49,0,0,1,3.35-1.37,4.27,4.27,0,0,1,3.26,1.39,4.93,4.93,0,0,1,1.29,3.5,4.73,4.73,0,0,1-1.32,3.41,4.36,4.36,0,0,1-3.29,1.37,4.4,4.4,0,0,1-3.32-1.38A4.82,4.82,0,0,1,9.62,51.67Zm1.62.1a2.83,2.83,0,0,0,.85,2.12,3,3,0,0,0,2.16.83,2.83,2.83,0,0,0,2.12-.85,3,3,0,0,0,.82-2.18,3,3,0,0,0-.83-2.16,2.87,2.87,0,0,0-2.13-.84,2.85,2.85,0,0,0-2.14.88A3,3,0,0,0,11.23,51.77Z" transform="translate(0 0)"/><path class="cls-1" d="M9.64,43.08h1.15a3.6,3.6,0,0,1-1.33-2.73,3,3,0,0,1,.44-1.58,2.86,2.86,0,0,1,1.2-1.11,5.75,5.75,0,0,1,2.42-.38H18.7v1.79H13.54a3.53,3.53,0,0,0-2,.42,1.62,1.62,0,0,0-.6,1.42,2.58,2.58,0,0,0,1.27,2.16H18.7v1.83H9.64Z" transform="translate(0 0)"/></svg>