<?xml version="1.0" encoding="UTF-8" standalone="no"?>
<svg
   version="1.1"
   width="25"
   height="380"
   viewBox="0 0 25 380"
   enable-background="new 0 0 25 380"
   id="svg14"
   xmlns="http://www.w3.org/2000/svg"
   xmlns:svg="http://www.w3.org/2000/svg">
  <defs
     id="defs18" />
  <g
     id="g12">
    <path
       id="rect4"
       style="clip-rule:evenodd;fill:#1a5e9a;fill-rule:evenodd"
       d="M 0,0 H 25 V 380 H 0 Z" />
    <g
       transform="rotate(-90,19,37)"
       id="g10">
      <g
         aria-label="W3C Statement"
         id="text8"
         style="fill:#ffffff">
        <path
           d="m -95.052734,23.357422 h 1.943359 l -5.517578,13.701172 h -0.419922 l -4.462895,-11.09375 -4.50195,11.09375 h -0.41992 l -5.49805,-13.701172 h 1.96289 l 3.75977,9.404297 3.7793,-9.404297 h 1.85546 l 3.798833,9.404297 z"
           id="path21" />
        <path
           d="m -89.466797,29.060547 h 0.117188 q 1.279297,0 1.943359,-0.527344 0.673828,-0.527344 0.673828,-1.533203 0,-0.908203 -0.654297,-1.474609 -0.644531,-0.566407 -1.699218,-0.566407 -1.064454,0 -2.363282,0.664063 v -1.865235 q 1.191407,-0.595703 2.597657,-0.595703 1.884765,0 2.96875,0.986328 1.09375,0.986329 1.09375,2.695313 0,1.035156 -0.419922,1.748047 -0.419922,0.703125 -1.337891,1.210937 0.800781,0.3125 1.171875,0.771485 0.371094,0.449218 0.576172,1.09375 0.205078,0.644531 0.205078,1.367187 0,1.78711 -1.191406,2.958985 -1.191406,1.162109 -3.007813,1.162109 -1.552734,0 -2.998047,-0.751953 v -2.128906 q 1.542969,0.966796 2.998047,0.966796 0.986328,0 1.582032,-0.585937 0.605468,-0.585938 0.605468,-1.552734 0,-0.810547 -0.498047,-1.416016 -0.292968,-0.341797 -0.654296,-0.498047 -0.351563,-0.166016 -1.533204,-0.3125 l -0.175781,-0.01953 z"
           id="path23" />
        <path
           d="m -69.808594,33.835937 v 2.148438 q -2.148437,1.171875 -4.960937,1.171875 -2.285156,0 -3.876953,-0.917969 -1.591797,-0.917969 -2.519532,-2.529297 -0.927734,-1.611328 -0.927734,-3.486328 0,-2.978515 2.119141,-5.009765 2.128906,-2.03125 5.24414,-2.03125 2.148438,0 4.775391,1.123046 v 2.09961 q -2.392578,-1.367188 -4.677734,-1.367188 -2.34375,0 -3.896485,1.484375 -1.542969,1.47461 -1.542969,3.701172 0,2.246094 1.523438,3.691406 1.523437,1.445313 3.896484,1.445313 2.480469,0 4.84375,-1.523438 z"
           id="path25" />
        <path
           d="m -58.460937,31.277344 -1.484375,-0.898438 q -1.396485,-0.849609 -1.992188,-1.669922 -0.585937,-0.830078 -0.585937,-1.904297 0,-1.611328 1.113281,-2.617187 1.123047,-1.005859 2.910156,-1.005859 1.708984,0 3.134766,0.957031 v 2.216797 q -1.47461,-1.416016 -3.173828,-1.416016 -0.957032,0 -1.572266,0.449219 -0.615234,0.439453 -0.615234,1.132812 0,0.615235 0.449218,1.152344 0.449219,0.537109 1.455078,1.123047 l 1.494141,0.878906 q 2.5,1.484375 2.5,3.789063 0,1.640625 -1.103516,2.666015 -1.09375,1.025391 -2.851562,1.025391 -2.021484,0 -3.681641,-1.240234 v -2.480469 q 1.582032,2.001953 3.66211,2.001953 0.917968,0 1.523437,-0.507813 0.615235,-0.517578 0.615235,-1.289062 0,-1.25 -1.796875,-2.363281 z"
           id="path27" />
        <path
           d="m -54.164062,29.441406 3.339843,-3.28125 v 1.855469 h 2.841797 v 1.601562 h -2.841797 v 4.404297 q 0,1.542969 1.279297,1.542969 0.957031,0 2.021485,-0.644531 v 1.660156 q -1.025391,0.576172 -2.236329,0.576172 -1.220703,0 -2.03125,-0.712891 -0.253906,-0.214843 -0.419921,-0.478515 -0.166016,-0.273438 -0.283204,-0.703125 -0.107421,-0.439453 -0.107421,-1.660157 v -3.984375 h -1.5625 z"
           id="path29" />
        <path
           d="m -40.580078,31.599609 v 3.81836 q 0,0.458984 0.3125,0.458984 0.322266,0 1.005859,-0.478516 v 1.083985 q -0.605468,0.390625 -0.976562,0.527344 Q -40.599609,37.15625 -41,37.15625 q -1.142578,0 -1.347656,-0.898438 -1.132813,0.878907 -2.41211,0.878907 -0.9375,0 -1.5625,-0.615235 -0.625,-0.625 -0.625,-1.5625 0,-0.849609 0.605469,-1.513672 0.615235,-0.673828 1.738281,-1.064453 l 2.275391,-0.78125 v -0.478515 q 0,-1.621094 -1.621094,-1.621094 -1.455078,0 -2.832031,1.503906 v -1.943359 q 1.035156,-1.220703 2.978516,-1.220703 1.455078,0 2.333984,0.761718 0.292969,0.244141 0.527344,0.654297 0.234375,0.400391 0.292969,0.810547 0.06836,0.400391 0.06836,1.533203 z m -1.748047,3.623047 v -2.666015 l -1.191406,0.458984 q -0.908203,0.361328 -1.289063,0.732422 -0.371093,0.361328 -0.371093,0.908203 0,0.556641 0.351562,0.908203 0.361328,0.351563 0.927734,0.351563 0.84961,0 1.572266,-0.69336 z"
           id="path31" />
        <path
           d="m -38.929687,29.441406 3.339843,-3.28125 v 1.855469 h 2.841797 v 1.601562 h -2.841797 v 4.404297 q 0,1.542969 1.279297,1.542969 0.957031,0 2.021485,-0.644531 v 1.660156 q -1.025391,0.576172 -2.236329,0.576172 -1.220703,0 -2.03125,-0.712891 -0.253906,-0.214843 -0.419921,-0.478515 -0.166016,-0.273438 -0.283204,-0.703125 -0.107421,-0.439453 -0.107421,-1.660157 v -3.984375 h -1.5625 z"
           id="path33" />
        <path
           d="m -23.333984,32.664062 h -6.31836 q 0.06836,1.289063 0.859375,2.050782 0.800782,0.761718 2.060547,0.761718 1.757813,0 3.242188,-1.09375 v 1.738282 q -0.820313,0.546875 -1.63086,0.78125 -0.800781,0.234375 -1.884765,0.234375 -1.484375,0 -2.402344,-0.615235 -0.917969,-0.615234 -1.474609,-1.65039 -0.546875,-1.044922 -0.546875,-2.41211 0,-2.050781 1.162109,-3.330078 1.162109,-1.289062 3.017578,-1.289062 1.787109,0 2.851563,1.25 1.064453,1.25 1.064453,3.349609 z m -6.279297,-1.064453 h 4.521484 q -0.06836,-1.064453 -0.634765,-1.640625 -0.566407,-0.576172 -1.523438,-0.576172 -0.957031,0 -1.572266,0.576172 -0.605468,0.576172 -0.791015,1.640625 z"
           id="path35" />
        <path
           d="M -14.056641,30.476562 V 37 h -1.787109 v -5 q 0,-1.494141 -0.400391,-2.080078 -0.40039,-0.595703 -1.396484,-0.595703 -0.556641,0 -1.025391,0.253906 -0.458984,0.253906 -1.054687,0.898437 V 37 h -1.777344 v -8.984375 h 1.777344 v 1.181641 q 1.357422,-1.357422 2.65625,-1.357422 1.708984,0 2.646484,1.621093 1.425781,-1.640625 2.978516,-1.640625 1.308594,0 2.1484374,0.957032 0.8496093,0.957031 0.8496093,2.919922 V 37 H -10.21875 v -5.322266 q 0,-1.123047 -0.458984,-1.71875 -0.458985,-0.595703 -1.31836,-0.595703 -1.103515,0 -2.060547,1.113281 z"
           id="path37" />
        <path
           d="m 1.6660156,32.664062 h -6.3183593 q 0.068359,1.289063 0.8593749,2.050782 0.8007813,0.761718 2.0605469,0.761718 1.75781253,0 3.2421875,-1.09375 v 1.738282 q -0.82031248,0.546875 -1.63085935,0.78125 -0.80078125,0.234375 -1.88476565,0.234375 -1.484375,0 -2.4023437,-0.615235 -0.9179688,-0.615234 -1.4746094,-1.65039 -0.546875,-1.044922 -0.546875,-2.41211 0,-2.050781 1.1621094,-3.330078 1.1621094,-1.289062 3.0175781,-1.289062 1.78710937,0 2.8515625,1.25 1.0644531,1.25 1.0644531,3.349609 z m -6.2792968,-1.064453 h 4.52148433 Q -0.16015625,30.535156 -0.7265625,29.958984 -1.2929687,29.382812 -2.25,29.382812 q -0.9570313,0 -1.5722656,0.576172 -0.6054688,0.576172 -0.7910156,1.640625 z"
           id="path39" />
        <path
           d="m 5.3574219,28.015625 v 1.142578 Q 6.5488281,27.839844 8.0625,27.839844 q 0.8398438,0 1.5625,0.439453 0.722656,0.429687 1.09375,1.191406 0.380859,0.751953 0.380859,2.392578 V 37 H 9.3222656 v -5.117188 q 0,-1.376953 -0.4199218,-1.96289 -0.4199219,-0.595703 -1.4062501,-0.595703 -1.2597656,0 -2.1386718,1.259765 V 37 H 3.5410156 v -8.984375 z"
           id="path41" />
        <path
           d="m 12.320313,29.441406 3.339843,-3.28125 v 1.855469 h 2.841797 v 1.601562 h -2.841797 v 4.404297 q 0,1.542969 1.279297,1.542969 0.957031,0 2.021484,-0.644531 v 1.660156 q -1.02539,0.576172 -2.236328,0.576172 -1.220703,0 -2.03125,-0.712891 -0.253906,-0.214843 -0.419921,-0.478515 -0.166016,-0.273438 -0.283204,-0.703125 -0.107421,-0.439453 -0.107421,-1.660157 v -3.984375 h -1.5625 z"
           id="path43" />
      </g>
    </g>
  </g>
</svg>
