<?xml version="1.0" encoding="UTF-8" standalone="no"?>
<!-- Generator: Adobe Illustrator 16.0.0, SVG Export Plug-In . SVG Version: 6.00 Build 0)  -->

<svg
   version="1.1"
   id="Layer_1"
   viewBox="0 0 154 113"
   xmlns="http://www.w3.org/2000/svg"
   xmlns:svg="http://www.w3.org/2000/svg">
  <defs
     id="defs25" />
  <rect
     x="0"
     y="0"
     width="154"
     height="113"
     fill="red"
     id="rect4" />
  <g
     transform="translate(0,12.5)"
     id="g18">
    <g
       id="g16">
      <path
         fill="#ffffff"
         d="M 100.383,38.538 C 97.871,34.401 94.166,31.544 89.276,29.975 l 13.933,-24 V 1.366 H 76.076 66.492 66.2 L 52.548,47.757 38.905,1.366 H 29.019 L 33.539,16.519 24.312,47.757 10.665,1.366 H 0.782 L 23.37,77.59 h 0.942 L 38.429,30.354 52.548,77.59 h 0.94 L 72.829,12.325 73.738,10.778 H 89.655 L 76.467,33.545 v 4.518 h 3.772 c 4.836,0 8.373,1.475 10.636,4.426 1.945,2.506 2.915,6.051 2.915,10.631 0,4.143 -0.907,7.688 -2.726,10.635 -1.819,2.951 -4.047,4.42 -6.683,4.42 -2.506,0 -4.692,-0.829 -6.547,-2.491 -1.847,-1.659 -3.344,-3.935 -4.47,-6.815 l -7.722,3.193 c 1.566,4.77 3.986,8.547 7.247,11.34 3.259,2.788 7.097,4.188 11.491,4.188 5.828,0 10.581,-2.354 14.252,-7.057 3.674,-4.704 5.517,-10.512 5.517,-17.413 0.001,-5.583 -1.26,-10.447 -3.766,-14.582 z"
         id="path6" />
      <g
         id="g14">
        <path
           fill="#ffffff"
           d="m 142.451,0.939 1.606,9.73 -5.677,10.841 c 0,0 -2.176,-4.603 -5.783,-7.148 -3.045,-2.145 -5.034,-2.611 -8.131,-1.969 -3.987,0.822 -8.507,5.582 -10.477,11.454 -2.363,7.028 -2.383,10.427 -2.462,13.552 -0.133,5.002 0.655,7.963 0.655,7.963 0,0 -3.438,-6.36 -3.407,-15.682 0.028,-6.652 1.069,-12.689 4.141,-18.643 2.713,-5.229 6.742,-8.372 10.316,-8.744 3.692,-0.384 6.616,1.398 8.875,3.325 2.366,2.021 4.756,6.446 4.756,6.446 z"
           id="path8" />
        <path
           fill="#ffffff"
           d="m 143.151,55.996 c 0,0 -2.511,4.474 -4.068,6.201 -1.563,1.722 -4.351,4.765 -7.799,6.281 -3.454,1.517 -5.258,1.806 -8.671,1.479 -3.404,-0.327 -6.571,-2.296 -7.681,-3.121 -1.106,-0.822 -3.936,-3.248 -5.537,-5.5 -1.604,-2.262 -4.109,-6.777 -4.109,-6.777 0,0 1.392,4.527 2.27,6.447 0.502,1.104 2.048,4.482 4.239,7.427 2.038,2.754 6.011,7.477 12.052,8.544 6.041,1.064 10.186,-1.644 11.211,-2.298 1.025,-0.656 3.19,-2.472 4.558,-3.936 1.431,-1.526 2.782,-3.477 3.536,-4.645 0.552,-0.856 1.439,-2.59 1.439,-2.59 z"
           id="path10" />
        <path
           fill-rule="evenodd"
           clip-rule="evenodd"
           fill="#ffffff"
           d="m 149.896,2.222 c 0.654,0 0.957,0.184 0.957,0.639 0,0.436 -0.303,0.593 -0.938,0.593 h -0.593 V 2.222 Z m 0.126,-0.454 h -1.401 v 3.72 h 0.7 V 3.901 h 0.691 l 0.758,1.586 h 0.781 L 150.723,3.79 c 0.537,-0.108 0.848,-0.473 0.848,-1.002 0,-0.675 -0.51,-1.02 -1.549,-1.02 z m 2.759,1.95 c 0,0.758 -0.291,1.46 -0.828,1.978 -0.563,0.548 -1.265,0.839 -2.039,0.839 -0.729,0 -1.447,-0.3 -1.986,-0.847 -0.537,-0.548 -0.836,-1.249 -0.836,-1.996 0,-0.749 0.311,-1.478 0.865,-2.042 0.52,-0.53 1.22,-0.813 1.983,-0.813 0.783,0 1.485,0.292 2.032,0.849 0.528,0.528 0.809,1.24 0.809,2.032 z m -2.849,-3.307 c -0.885,0 -1.676,0.316 -2.276,0.929 -0.636,0.649 -0.992,1.486 -0.992,2.352 0,0.867 0.337,1.667 0.956,2.295 0.628,0.639 1.44,0.983 2.312,0.983 0.856,0 1.684,-0.344 2.331,-0.973 0.62,-0.601 0.956,-1.403 0.956,-2.305 0,-0.876 -0.347,-1.697 -0.948,-2.307 -0.626,-0.639 -1.446,-0.974 -2.339,-0.974 z"
           id="path12" />
      </g>
    </g>
  </g>
  <g
     aria-label="Editor's Draft"
     id="text20"
     style="fill:#ffffff">
    <path
       d="M -3.5371094,91.536133 H 8.0644531 v 2.607422 h -8.67187497 v 6.240235 H 7.7714844 v 2.62207 h -8.37890627 v 6.35742 H 8.3427734 v 2.60742 H -3.5371094 Z"
       style="fill:#ffffff"
       id="path27" />
    <path
       d="m 20.09082,91.536133 h 2.680664 V 112 h -5.698242 q -2.988281,0 -4.77539,-1.88965 -1.772461,-1.88965 -1.772461,-5.06836 0,-2.97363 1.860351,-4.89258 1.875,-1.918941 4.775391,-1.918941 1.347656,0 2.929687,0.571289 z m 0,18.178707 v -8.54004 q -1.245117,-0.62988 -2.519531,-0.62988 -1.992187,0 -3.178711,1.30371 -1.171875,1.30371 -1.171875,3.51563 0,2.08008 1.025391,3.20801 0.615234,0.67382 1.303711,0.9082 0.688476,0.23437 2.475586,0.23437 z"
       style="fill:#ffffff"
       id="path29" />
    <path
       d="m 27.766602,92.854492 q 0.659179,0 1.127929,0.454102 0.46875,0.454101 0.46875,1.113281 0,0.644531 -0.46875,1.113281 -0.46875,0.46875 -1.127929,0.46875 -0.615235,0 -1.083985,-0.46875 -0.46875,-0.483398 -0.46875,-1.113281 0,-0.615234 0.46875,-1.083984 0.46875,-0.483399 1.083985,-0.483399 z m -1.31836,5.668945 h 2.666016 V 112 h -2.666016 z"
       style="fill:#ffffff"
       id="path31" />
    <path
       d="m 31.0625,100.66211 5.009766,-4.921876 v 2.783203 h 4.262695 v 2.402343 h -4.262695 v 6.60645 q 0,2.31445 1.918945,2.31445 1.435547,0 3.032226,-0.9668 v 2.49024 q -1.538085,0.86426 -3.354492,0.86426 -1.831054,0 -3.046875,-1.06934 -0.380859,-0.32227 -0.629883,-0.71777 -0.249023,-0.41016 -0.424804,-1.05469 -0.161133,-0.65918 -0.161133,-2.49024 v -5.97656 H 31.0625 Z"
       style="fill:#ffffff"
       id="path33" />
    <path
       d="m 49.416992,98.494141 q 3.076172,0 5.112305,1.992189 2.036133,1.97754 2.036133,4.98047 0,2.91504 -2.06543,4.84863 -2.06543,1.91895 -5.200195,1.91895 -3.032227,0 -5.06836,-1.94825 -2.036133,-1.96289 -2.036133,-4.89258 0,-2.95898 2.050782,-4.92187 2.065429,-1.977539 5.170898,-1.977539 z m -0.146484,2.402339 q -1.918946,0 -3.149414,1.25977 -1.230469,1.25977 -1.230469,3.20801 0,1.93359 1.259766,3.16406 1.259765,1.21582 3.237304,1.21582 1.962891,0 3.208008,-1.23047 1.259766,-1.24512 1.259766,-3.17871 0,-1.91894 -1.303711,-3.17871 -1.303711,-1.25977 -3.28125,-1.25977 z"
       style="fill:#ffffff"
       id="path35" />
    <path
       d="m 62.410156,98.523437 v 3.090823 l 0.146485,-0.23438 q 1.933593,-3.120114 3.867187,-3.120114 1.508789,0 3.149414,1.523437 l -1.40625,2.343747 q -1.391601,-1.31836 -2.578125,-1.31836 -1.289062,0 -2.241211,1.23047 -0.9375,1.23047 -0.9375,2.91504 V 112 H 59.729492 V 98.523437 Z"
       style="fill:#ffffff"
       id="path37" />
    <path
       d="m 73.191406,98.142578 h -1.655273 l -0.65918,-4.02832 v -3.588867 h 3.00293 v 3.588867 z"
       style="fill:#ffffff"
       id="path39" />
    <path
       d="m 76.414062,111.0332 v -2.87109 q 1.12793,0.79102 2.299805,1.28906 1.186524,0.4834 1.992188,0.4834 0.834961,0 1.435547,-0.41016 0.600585,-0.41015 0.600585,-0.98144 0,-0.58594 -0.395507,-0.9668 -0.38086,-0.39551 -1.669922,-1.12793 -2.578125,-1.43554 -3.383789,-2.44629 -0.791016,-1.02539 -0.791016,-2.22656 0,-1.55273 1.201172,-2.534179 1.21582,-0.981445 3.120117,-0.981445 1.977539,0 4.057617,1.113281 v 2.636723 q -2.373047,-1.43555 -3.881836,-1.43555 -0.776367,0 -1.259765,0.33691 -0.46875,0.32227 -0.46875,0.86426 0,0.46875 0.424804,0.89356 0.439454,0.4248 1.523438,1.02539 l 0.952148,0.54199 q 3.369141,1.9043 3.369141,4.21875 0,1.65527 -1.303711,2.72461 -1.289062,1.05469 -3.325195,1.05469 -1.201172,0 -2.138672,-0.24903 -0.9375,-0.26367 -2.358399,-0.95215 z"
       style="fill:#ffffff"
       id="path41" />
    <path
       d="M 97.332031,111.9707 V 91.536133 h 6.899419 q 4.1748,0 6.60644,1.259765 2.43164,1.245118 3.86719,3.676758 1.43555,2.431641 1.43555,5.302734 0,2.05078 -0.79102,3.92578 -0.79102,1.875 -2.25586,3.2959 -1.49414,1.46484 -3.47168,2.21191 -1.15723,0.45411 -2.12402,0.61524 -0.9668,0.14648 -3.69141,0.14648 z m 6.591799,-17.827145 h -3.66211 v 15.219725 h 3.75 q 2.19726,0 3.41308,-0.29297 1.21583,-0.30761 2.02149,-0.76172 0.82031,-0.46875 1.49414,-1.14257 2.16797,-2.19727 2.16797,-5.55176 0,-3.295901 -2.22656,-5.375979 -0.82032,-0.776367 -1.88965,-1.274414 -1.05469,-0.498047 -2.00684,-0.65918 -0.95215,-0.161132 -3.06152,-0.161132 z"
       style="fill:#ffffff"
       id="path43" />
    <path
       d="m 122.29297,98.523437 v 3.090823 l 0.14648,-0.23438 q 1.9336,-3.120114 3.86719,-3.120114 1.50879,0 3.14941,1.523437 l -1.40625,2.343747 q -1.3916,-1.31836 -2.57812,-1.31836 -1.28906,0 -2.24121,1.23047 -0.9375,1.23047 -0.9375,2.91504 V 112 H 119.6123 V 98.523437 Z"
       style="fill:#ffffff"
       id="path45" />
    <path
       d="m 139.79785,103.89941 v 5.72754 q 0,0.68848 0.46875,0.68848 0.4834,0 1.50879,-0.71777 v 1.62597 q -0.9082,0.58594 -1.46484,0.79102 -0.542,0.21973 -1.14258,0.21973 -1.71387,0 -2.02149,-1.34766 -1.69921,1.31836 -3.61816,1.31836 -1.40625,0 -2.34375,-0.92285 -0.9375,-0.9375 -0.9375,-2.34375 0,-1.27442 0.9082,-2.27051 0.92285,-1.01074 2.60743,-1.59668 l 3.41308,-1.17188 v -0.71777 q 0,-2.43164 -2.43164,-2.43164 -2.18262,0 -4.24805,2.25586 v -2.91504 q 1.55274,-1.831054 4.46778,-1.831054 2.18261,0 3.50097,1.142578 0.43946,0.366211 0.79102,0.981446 0.35156,0.60059 0.43945,1.21582 0.10254,0.60059 0.10254,2.2998 z m -2.62207,5.43457 v -3.99902 l -1.78711,0.68848 q -1.3623,0.54199 -1.93359,1.09863 -0.55664,0.54199 -0.55664,1.36231 0,0.83496 0.52734,1.3623 0.54199,0.52734 1.3916,0.52734 1.27442,0 2.3584,-1.04004 z"
       style="fill:#ffffff"
       id="path47" />
    <path
       d="m 144.4707,98.523437 v -0.805664 q 0,-3.251953 1.37696,-4.848632 1.3916,-1.59668 3.32519,-1.59668 0.83496,0 1.97754,0.263672 v 2.607422 q -0.64453,-0.234375 -1.23047,-0.234375 -1.56738,0 -2.18262,0.834961 -0.60058,0.834961 -0.60058,2.973632 v 0.805664 h 2.40234 v 2.402343 h -2.40234 V 112 h -2.66602 v -11.07422 h -1.93359 v -2.402343 z"
       style="fill:#ffffff"
       id="path49" />
    <path
       d="m 149.77344,100.66211 5.00976,-4.921876 v 2.783203 h 4.2627 v 2.402343 h -4.2627 v 6.60645 q 0,2.31445 1.91895,2.31445 1.43555,0 3.03222,-0.9668 v 2.49024 q -1.53808,0.86426 -3.35449,0.86426 -1.83105,0 -3.04687,-1.06934 -0.38086,-0.32227 -0.62989,-0.71777 -0.24902,-0.41016 -0.4248,-1.05469 -0.16113,-0.65918 -0.16113,-2.49024 v -5.97656 h -2.34375 z"
       style="fill:#ffffff"
       id="path51" />
  </g>
</svg>
